  0
SECTION
  2
BLOCKS
  0
ENDSEC
  0
SECTION
  2
ENTITIES
  0
LINE
  8
0
 10
50.4564
 20
-98.2118
 11
63.2159
 21
-89.3389
  0
LINE
  8
0
 10
63.2159
 20
-89.3389
 11
64.3022
 21
-88.6491
  0
LINE
  8
0
 10
64.3022
 20
-88.6491
 11
81.729
 21
-72.2717
  0
LINE
  8
0
 10
81.729
 20
-72.2717
 11
82.6303
 21
-61.1576
  0
LINE
  8
0
 10
82.6303
 20
-61.1576
 11
81.7844
 21
-59.9642
  0
LINE
  8
0
 10
81.7844
 20
-59.9642
 11
73.4835
 21
-51.6794
  0
LINE
  8
0
 10
73.4835
 20
-51.6794
 11
72.2835
 21
-46.6274
  0
LINE
  8
0
 10
72.2835
 20
-46.6274
 11
72.5053
 21
-46.4662
  0
LINE
  8
0
 10
72.5053
 20
-46.4662
 11
73.0158
 21
-45.8993
  0
LINE
  8
0
 10
73.0158
 20
-45.8993
 11
73.3972
 21
-45.2387
  0
LINE
  8
0
 10
73.3972
 20
-45.2387
 11
73.6329
 21
-44.5131
  0
LINE
  8
0
 10
73.6329
 20
-44.5131
 11
73.7127
 21
-43.7545
  0
LINE
  8
0
 10
73.7127
 20
-43.7545
 11
73.6329
 21
-42.9958
  0
LINE
  8
0
 10
73.6329
 20
-42.9958
 11
73.3972
 21
-42.2702
  0
LINE
  8
0
 10
73.3972
 20
-42.2702
 11
73.0158
 21
-41.6096
  0
LINE
  8
0
 10
73.0158
 20
-41.6096
 11
72.5053
 21
-41.0426
  0
LINE
  8
0
 10
72.5053
 20
-41.0426
 11
71.8882
 21
-40.5942
  0
LINE
  8
0
 10
71.8882
 20
-40.5942
 11
71.1912
 21
-40.284
  0
LINE
  8
0
 10
71.1912
 20
-40.284
 11
70.7546
 21
-40.1911
  0
LINE
  8
0
 10
70.7546
 20
-40.1911
 11
68.1728
 21
-29.3225
  0
LINE
  8
0
 10
68.1728
 20
-29.3225
 11
71.4763
 21
-12.7458
  0
LINE
  8
0
 10
71.4763
 20
-12.7458
 11
71.4763
 21
-12.645
  0
LINE
  8
0
 10
71.4763
 20
-12.645
 11
71.284
 21
-3.84421
  0
LINE
  8
0
 10
71.284
 20
-3.84421
 11
67.2467
 21
12.6177
  0
LINE
  8
0
 10
67.2467
 20
12.6177
 11
63.3569
 21
20.4613
  0
LINE
  8
0
 10
63.3569
 20
20.4613
 11
63.0828
 21
20.7986
  0
LINE
  8
0
 10
63.0828
 20
20.7986
 11
63.3458
 21
21.2542
  0
LINE
  8
0
 10
63.3458
 20
21.2542
 11
63.5815
 21
21.9797
  0
LINE
  8
0
 10
63.5815
 20
21.9797
 11
63.6612
 21
22.7384
  0
LINE
  8
0
 10
63.6612
 20
22.7384
 11
63.5815
 21
23.4971
  0
LINE
  8
0
 10
63.5815
 20
23.4971
 11
63.3458
 21
24.2226
  0
LINE
  8
0
 10
63.3458
 20
24.2226
 11
62.9643
 21
24.8832
  0
LINE
  8
0
 10
62.9643
 20
24.8832
 11
62.4539
 21
25.4502
  0
LINE
  8
0
 10
62.4539
 20
25.4502
 11
61.8367
 21
25.8986
  0
LINE
  8
0
 10
61.8367
 20
25.8986
 11
61.1398
 21
26.2089
  0
LINE
  8
0
 10
61.1398
 20
26.2089
 11
60.3936
 21
26.3675
  0
LINE
  8
0
 10
60.3936
 20
26.3675
 11
59.6307
 21
26.3675
  0
LINE
  8
0
 10
59.6307
 20
26.3675
 11
58.8845
 21
26.2089
  0
LINE
  8
0
 10
58.8845
 20
26.2089
 11
58.7391
 21
26.1441
  0
LINE
  8
0
 10
58.7391
 20
26.1441
 11
52.7674
 21
33.4932
  0
LINE
  8
0
 10
52.7674
 20
33.4932
 11
44.2674
 21
42.0571
  0
LINE
  8
0
 10
44.2674
 20
42.0571
 11
44.1674
 21
42.0571
  0
LINE
  8
0
 10
44.1674
 20
42.0571
 11
15.9383
 21
41.7704
  0
LINE
  8
0
 10
15.9383
 20
41.7704
 11
15.8095
 21
42.0867
  0
LINE
  8
0
 10
15.8095
 20
42.0867
 11
12.3952
 21
42.0993
  0
LINE
  8
0
 10
12.3952
 20
42.0993
 11
12.3826
 21
42.1209
  0
LINE
  8
0
 10
12.3826
 20
42.1209
 11
6.56133
 21
42.1209
  0
LINE
  8
0
 10
6.56133
 20
42.1209
 11
5.79974
 21
41.6318
  0
LINE
  8
0
 10
5.79974
 20
41.6318
 11
3.2412
 21
41.1755
  0
LINE
  8
0
 10
3.2412
 20
41.1755
 11
-5.76404
 21
41.1755
  0
LINE
  8
0
 10
-5.76404
 20
41.1755
 11
-8.15833
 21
39.7565
  0
LINE
  8
0
 10
-8.15833
 20
39.7565
 11
-8.97244
 21
31.8741
  0
LINE
  8
0
 10
-8.97244
 20
31.8741
 11
-11.6735
 21
31.8741
  0
LINE
  8
0
 10
-11.6735
 20
31.8741
 11
-11.9267
 21
32.1553
  0
LINE
  8
0
 10
-11.9267
 20
32.1553
 11
-12.5438
 21
32.6037
  0
LINE
  8
0
 10
-12.5438
 20
32.6037
 11
-13.2407
 21
32.914
  0
LINE
  8
0
 10
-13.2407
 20
32.914
 11
-13.9869
 21
33.0726
  0
LINE
  8
0
 10
-13.9869
 20
33.0726
 11
-14.7498
 21
33.0726
  0
LINE
  8
0
 10
-14.7498
 20
33.0726
 11
-15.496
 21
32.914
  0
LINE
  8
0
 10
-15.496
 20
32.914
 11
-16.1929
 21
32.6037
  0
LINE
  8
0
 10
-16.1929
 20
32.6037
 11
-16.8101
 21
32.1553
  0
LINE
  8
0
 10
-16.8101
 20
32.1553
 11
-17.0633
 21
31.8741
  0
LINE
  8
0
 10
-17.0633
 20
31.8741
 11
-17.2523
 21
31.8741
  0
LINE
  8
0
 10
-17.2523
 20
31.8741
 11
-19.6258
 21
30.6447
  0
LINE
  8
0
 10
-19.6258
 20
30.6447
 11
-20.8817
 21
22.8213
  0
LINE
  8
0
 10
-20.8817
 20
22.8213
 11
-19.703
 21
19.7415
  0
LINE
  8
0
 10
-19.703
 20
19.7415
 11
-14.6932
 21
6.54439
  0
LINE
  8
0
 10
-14.6932
 20
6.54439
 11
-13.3222
 21
-0.692337
  0
LINE
  8
0
 10
-13.3222
 20
-0.692337
 11
-13.2834
 21
-11.4324
  0
LINE
  8
0
 10
-13.2834
 20
-11.4324
 11
-13.2392
 21
-17.4674
  0
LINE
  8
0
 10
-13.2392
 20
-17.4674
 11
-14.4219
 21
-23.9753
  0
LINE
  8
0
 10
-14.4219
 20
-23.9753
 11
-17.7629
 21
-32.6541
  0
LINE
  8
0
 10
-17.7629
 20
-32.6541
 11
-20.4451
 21
-39.679
  0
LINE
  8
0
 10
-20.4451
 20
-39.679
 11
-19.8445
 21
-47.4422
  0
LINE
  8
0
 10
-19.8445
 20
-47.4422
 11
-19.6258
 21
-48.8044
  0
LINE
  8
0
 10
-19.6258
 20
-48.8044
 11
-17.4138
 21
-49.9502
  0
LINE
  8
0
 10
-17.4138
 20
-49.9502
 11
-17.1926
 21
-50.0338
  0
LINE
  8
0
 10
-17.1926
 20
-50.0338
 11
-12.4801
 21
-50.0338
  0
LINE
  8
0
 10
-12.4801
 20
-50.0338
 11
-12.5187
 21
-50.4011
  0
LINE
  8
0
 10
-12.5187
 20
-50.4011
 11
-12.4389
 21
-51.1598
  0
LINE
  8
0
 10
-12.4389
 20
-51.1598
 11
-12.2032
 21
-51.8853
  0
LINE
  8
0
 10
-12.2032
 20
-51.8853
 11
-11.8218
 21
-52.546
  0
LINE
  8
0
 10
-11.8218
 20
-52.546
 11
-11.3113
 21
-53.1129
  0
LINE
  8
0
 10
-11.3113
 20
-53.1129
 11
-10.6941
 21
-53.5613
  0
LINE
  8
0
 10
-10.6941
 20
-53.5613
 11
-10.3075
 21
-53.7334
  0
LINE
  8
0
 10
-10.3075
 20
-53.7334
 11
-11.2016
 21
-57.3811
  0
LINE
  8
0
 10
-11.2016
 20
-57.3811
 11
-8.90195
 21
-58.9828
  0
LINE
  8
0
 10
-8.90195
 20
-58.9828
 11
-1.79182
 21
-58.9828
  0
LINE
  8
0
 10
-1.79182
 20
-58.9828
 11
0.402023
 21
-67.6692
  0
LINE
  8
0
 10
0.402023
 20
-67.6692
 11
14.0833
 21
-78.2705
  0
LINE
  8
0
 10
14.0833
 20
-78.2705
 11
15.5
 21
-79.3856
  0
LINE
  8
0
 10
15.5
 20
-79.3856
 11
15.3955
 21
-79.7071
  0
LINE
  8
0
 10
15.3955
 20
-79.7071
 11
15.3158
 21
-80.4658
  0
LINE
  8
0
 10
15.3158
 20
-80.4658
 11
15.3955
 21
-81.2245
  0
LINE
  8
0
 10
15.3955
 20
-81.2245
 11
15.6312
 21
-81.95
  0
LINE
  8
0
 10
15.6312
 20
-81.95
 11
16.0127
 21
-82.6107
  0
LINE
  8
0
 10
16.0127
 20
-82.6107
 11
16.5231
 21
-83.1776
  0
LINE
  8
0
 10
16.5231
 20
-83.1776
 11
17.1403
 21
-83.626
  0
LINE
  8
0
 10
17.1403
 20
-83.626
 11
17.8372
 21
-83.9363
  0
LINE
  8
0
 10
17.8372
 20
-83.9363
 11
18.5834
 21
-84.0949
  0
LINE
  8
0
 10
18.5834
 20
-84.0949
 11
19.3463
 21
-84.0949
  0
LINE
  8
0
 10
19.3463
 20
-84.0949
 11
20.0925
 21
-83.9363
  0
LINE
  8
0
 10
20.0925
 20
-83.9363
 11
20.7894
 21
-83.626
  0
LINE
  8
0
 10
20.7894
 20
-83.626
 11
20.8401
 21
-83.5892
  0
LINE
  8
0
 10
20.8401
 20
-83.5892
 11
26.709
 21
-88.2089
  0
LINE
  8
0
 10
26.709
 20
-88.2089
 11
27.2956
 21
-87.7048
  0
LINE
  8
0
 10
27.2956
 20
-87.7048
 11
38.4574
 21
-97.6246
  0
LINE
  8
0
 10
38.4574
 20
-97.6246
 11
50.4564
 21
-98.2118
  0
LINE
  8
0
 10
49.1457
 20
-95.0322
 11
39.97
 21
-94.5831
  0
LINE
  8
0
 10
39.97
 20
-94.5831
 11
28.6609
 21
-84.5323
  0
LINE
  8
0
 10
28.6609
 20
-84.5323
 11
27.9829
 21
-85.0038
  0
LINE
  8
0
 10
27.9829
 20
-85.0038
 11
22.5837
 21
-80.7537
  0
LINE
  8
0
 10
22.5837
 20
-80.7537
 11
22.6139
 21
-80.4658
  0
LINE
  8
0
 10
22.6139
 20
-80.4658
 11
22.5342
 21
-79.7071
  0
LINE
  8
0
 10
22.5342
 20
-79.7071
 11
22.2985
 21
-78.9816
  0
LINE
  8
0
 10
22.2985
 20
-78.9816
 11
21.917
 21
-78.321
  0
LINE
  8
0
 10
21.917
 20
-78.321
 11
21.4066
 21
-77.754
  0
LINE
  8
0
 10
21.4066
 20
-77.754
 11
20.7894
 21
-77.3056
  0
LINE
  8
0
 10
20.7894
 20
-77.3056
 11
20.0925
 21
-76.9953
  0
LINE
  8
0
 10
20.0925
 20
-76.9953
 11
19.3463
 21
-76.8367
  0
LINE
  8
0
 10
19.3463
 20
-76.8367
 11
18.5834
 21
-76.8367
  0
LINE
  8
0
 10
18.5834
 20
-76.8367
 11
17.8372
 21
-76.9953
  0
LINE
  8
0
 10
17.8372
 20
-76.9953
 11
17.8192
 21
-77.0034
  0
LINE
  8
0
 10
17.8192
 20
-77.0034
 11
15.6031
 21
-75.259
  0
LINE
  8
0
 10
15.6031
 20
-75.259
 11
2.1226
 21
-64.7915
  0
LINE
  8
0
 10
2.1226
 20
-64.7915
 11
1.15195
 21
-57.1885
  0
LINE
  8
0
 10
1.15195
 20
-57.1885
 11
-1.14769
 21
-55.5868
  0
LINE
  8
0
 10
-1.14769
 20
-55.5868
 11
-7.5154
 21
-55.5868
  0
LINE
  8
0
 10
-7.5154
 20
-55.5868
 11
-7.09258
 21
-53.5824
  0
LINE
  8
0
 10
-7.09258
 20
-53.5824
 11
-7.04504
 21
-53.5613
  0
LINE
  8
0
 10
-7.04504
 20
-53.5613
 11
-6.42787
 21
-53.1129
  0
LINE
  8
0
 10
-6.42787
 20
-53.1129
 11
-5.91742
 21
-52.546
  0
LINE
  8
0
 10
-5.91742
 20
-52.546
 11
-5.53598
 21
-51.8853
  0
LINE
  8
0
 10
-5.53598
 20
-51.8853
 11
-5.30025
 21
-51.1598
  0
LINE
  8
0
 10
-5.30025
 20
-51.1598
 11
-5.2205
 21
-50.4011
  0
LINE
  8
0
 10
-5.2205
 20
-50.4011
 11
-5.30025
 21
-49.6424
  0
LINE
  8
0
 10
-5.30025
 20
-49.6424
 11
-5.53598
 21
-48.9169
  0
LINE
  8
0
 10
-5.53598
 20
-48.9169
 11
-5.91742
 21
-48.2562
  0
LINE
  8
0
 10
-5.91742
 20
-48.2562
 11
-5.9592
 21
-48.2098
  0
LINE
  8
0
 10
-5.9592
 20
-48.2098
 11
-5.93625
 21
-48.101
  0
LINE
  8
0
 10
-5.93625
 20
-48.101
 11
-6.16287
 21
-47.9836
  0
LINE
  8
0
 10
-6.16287
 20
-47.9836
 11
-6.42787
 21
-47.6893
  0
LINE
  8
0
 10
-6.42787
 20
-47.6893
 11
-7.04504
 21
-47.2409
  0
LINE
  8
0
 10
-7.04504
 20
-47.2409
 11
-7.74196
 21
-46.9306
  0
LINE
  8
0
 10
-7.74196
 20
-46.9306
 11
-8.48816
 21
-46.772
  0
LINE
  8
0
 10
-8.48816
 20
-46.772
 11
-9.25102
 21
-46.772
  0
LINE
  8
0
 10
-9.25102
 20
-46.772
 11
-9.71971
 21
-46.8716
  0
LINE
  8
0
 10
-9.71971
 20
-46.8716
 11
-16.6621
 21
-46.8716
  0
LINE
  8
0
 10
-16.6621
 20
-46.8716
 11
-17.6752
 21
-40.6191
  0
LINE
  8
0
 10
-17.6752
 20
-40.6191
 11
-12.0205
 21
-25.3472
  0
LINE
  8
0
 10
-12.0205
 20
-25.3472
 11
-11.292
 21
-21.8958
  0
LINE
  8
0
 10
-11.292
 20
-21.8958
 11
-10.4955
 21
-17.5681
  0
LINE
  8
0
 10
-10.4955
 20
-17.5681
 11
-10.3256
 21
-0.591583
  0
LINE
  8
0
 10
-10.3256
 20
-0.591583
 11
-11.6752
 21
7.63637
  0
LINE
  8
0
 10
-11.6752
 20
7.63637
 11
-15.6118
 21
19.226
  0
LINE
  8
0
 10
-15.6118
 20
19.226
 11
-17.423
 21
23.9586
  0
LINE
  8
0
 10
-17.423
 20
23.9586
 11
-16.9525
 21
26.8898
  0
LINE
  8
0
 10
-16.9525
 20
26.8898
 11
-16.8101
 21
26.7317
  0
LINE
  8
0
 10
-16.8101
 20
26.7317
 11
-16.1929
 21
26.2833
  0
LINE
  8
0
 10
-16.1929
 20
26.2833
 11
-15.496
 21
25.973
  0
LINE
  8
0
 10
-15.496
 20
25.973
 11
-14.7498
 21
25.8144
  0
LINE
  8
0
 10
-14.7498
 20
25.8144
 11
-13.9869
 21
25.8144
  0
LINE
  8
0
 10
-13.9869
 20
25.8144
 11
-13.2407
 21
25.973
  0
LINE
  8
0
 10
-13.2407
 20
25.973
 11
-12.5438
 21
26.2833
  0
LINE
  8
0
 10
-12.5438
 20
26.2833
 11
-11.9267
 21
26.7317
  0
LINE
  8
0
 10
-11.9267
 20
26.7317
 11
-11.4162
 21
27.2986
  0
LINE
  8
0
 10
-11.4162
 20
27.2986
 11
-11.0348
 21
27.9592
  0
LINE
  8
0
 10
-11.0348
 20
27.9592
 11
-10.799
 21
28.6848
  0
LINE
  8
0
 10
-10.799
 20
28.6848
 11
-10.7962
 21
28.7119
  0
LINE
  8
0
 10
-10.7962
 20
28.7119
 11
-8.30971
 21
28.7119
  0
LINE
  8
0
 10
-8.30971
 20
28.7119
 11
-5.93625
 21
29.9412
  0
LINE
  8
0
 10
-5.93625
 20
29.9412
 11
-4.9977
 21
37.8884
  0
LINE
  8
0
 10
-4.9977
 20
37.8884
 11
1.78082
 21
37.8884
  0
LINE
  8
0
 10
1.78082
 20
37.8884
 11
5.6017
 21
38.7175
  0
LINE
  8
0
 10
5.6017
 20
38.7175
 11
6.05455
 21
38.1602
  0
LINE
  8
0
 10
6.05455
 20
38.1602
 11
10.1989
 21
38.1602
  0
LINE
  8
0
 10
10.1989
 20
38.1602
 11
44.1723
 21
39.9363
  0
LINE
  8
0
 10
44.1723
 20
39.9363
 11
50.6674
 21
33.3925
  0
LINE
  8
0
 10
50.6674
 20
33.3925
 11
57.3343
 21
25.1879
  0
LINE
  8
0
 10
57.3343
 20
25.1879
 11
57.06
 21
24.8832
  0
LINE
  8
0
 10
57.06
 20
24.8832
 11
56.6785
 21
24.2226
  0
LINE
  8
0
 10
56.6785
 20
24.2226
 11
56.4428
 21
23.4971
  0
LINE
  8
0
 10
56.4428
 20
23.4971
 11
56.3631
 21
22.7384
  0
LINE
  8
0
 10
56.3631
 20
22.7384
 11
56.4428
 21
21.9797
  0
LINE
  8
0
 10
56.4428
 20
21.9797
 11
56.6785
 21
21.2542
  0
LINE
  8
0
 10
56.6785
 20
21.2542
 11
57.06
 21
20.5935
  0
LINE
  8
0
 10
57.06
 20
20.5935
 11
57.5704
 21
20.0266
  0
LINE
  8
0
 10
57.5704
 20
20.0266
 11
58.1876
 21
19.5782
  0
LINE
  8
0
 10
58.1876
 20
19.5782
 11
58.8845
 21
19.2679
  0
LINE
  8
0
 10
58.8845
 20
19.2679
 11
59.6307
 21
19.1093
  0
LINE
  8
0
 10
59.6307
 20
19.1093
 11
60.3936
 21
19.1093
  0
LINE
  8
0
 10
60.3936
 20
19.1093
 11
61.1398
 21
19.2679
  0
LINE
  8
0
 10
61.1398
 20
19.2679
 11
61.6796
 21
19.5082
  0
LINE
  8
0
 10
61.6796
 20
19.5082
 11
65.1467
 21
12.517
  0
LINE
  8
0
 10
65.1467
 20
12.517
 11
69.184
 21
-3.94496
  0
LINE
  8
0
 10
69.184
 20
-3.94496
 11
69.3743
 21
-12.655
  0
LINE
  8
0
 10
69.3743
 20
-12.655
 11
66.0619
 21
-29.2765
  0
LINE
  8
0
 10
66.0619
 20
-29.2765
 11
66.0619
 21
-29.3773
  0
LINE
  8
0
 10
66.0619
 20
-29.3773
 11
68.3916
 21
-40.5263
  0
LINE
  8
0
 10
68.3916
 20
-40.5263
 11
68.2391
 21
-40.5942
  0
LINE
  8
0
 10
68.2391
 20
-40.5942
 11
67.6219
 21
-41.0426
  0
LINE
  8
0
 10
67.6219
 20
-41.0426
 11
67.1114
 21
-41.6096
  0
LINE
  8
0
 10
67.1114
 20
-41.6096
 11
66.73
 21
-42.2702
  0
LINE
  8
0
 10
66.73
 20
-42.2702
 11
66.4943
 21
-42.9958
  0
LINE
  8
0
 10
66.4943
 20
-42.9958
 11
66.4145
 21
-43.7545
  0
LINE
  8
0
 10
66.4145
 20
-43.7545
 11
66.4943
 21
-44.5131
  0
LINE
  8
0
 10
66.4943
 20
-44.5131
 11
66.73
 21
-45.2387
  0
LINE
  8
0
 10
66.73
 20
-45.2387
 11
67.1114
 21
-45.8993
  0
LINE
  8
0
 10
67.1114
 20
-45.8993
 11
67.6219
 21
-46.4662
  0
LINE
  8
0
 10
67.6219
 20
-46.4662
 11
68.2391
 21
-46.9147
  0
LINE
  8
0
 10
68.2391
 20
-46.9147
 11
68.936
 21
-47.2249
  0
LINE
  8
0
 10
68.936
 20
-47.2249
 11
69.6822
 21
-47.3835
  0
LINE
  8
0
 10
69.6822
 20
-47.3835
 11
69.8246
 21
-47.3835
  0
LINE
  8
0
 10
69.8246
 20
-47.3835
 11
70.7783
 21
-51.9476
  0
LINE
  8
0
 10
70.7783
 20
-51.9476
 11
71.6242
 21
-53.1409
  0
LINE
  8
0
 10
71.6242
 20
-53.1409
 11
80.1642
 21
-61.6644
  0
LINE
  8
0
 10
80.1642
 20
-61.6644
 11
79.5012
 21
-69.8405
  0
LINE
  8
0
 10
79.5012
 20
-69.8405
 11
62.2202
 21
-86.0808
  0
LINE
  8
0
 10
62.2202
 20
-86.0808
 11
61.9053
 21
-86.1593
  0
LINE
  8
0
 10
61.9053
 20
-86.1593
 11
49.1457
 21
-95.0322
  0
LINE
  8
0
 10
-14.5461
 20
27.7528
 11
-14.8937
 21
27.8267
  0
LINE
  8
0
 10
-14.8937
 20
27.8267
 11
-15.2184
 21
27.9712
  0
LINE
  8
0
 10
-15.2184
 20
27.9712
 11
-15.5059
 21
28.1801
  0
LINE
  8
0
 10
-15.5059
 20
28.1801
 11
-15.7437
 21
28.4442
  0
LINE
  8
0
 10
-15.7437
 20
28.4442
 11
-15.9214
 21
28.752
  0
LINE
  8
0
 10
-15.9214
 20
28.752
 11
-16.0312
 21
29.09
  0
LINE
  8
0
 10
-16.0312
 20
29.09
 11
-16.0684
 21
29.4435
  0
LINE
  8
0
 10
-16.0684
 20
29.4435
 11
-16.0312
 21
29.7969
  0
LINE
  8
0
 10
-16.0312
 20
29.7969
 11
-15.9214
 21
30.1349
  0
LINE
  8
0
 10
-15.9214
 20
30.1349
 11
-15.7437
 21
30.4427
  0
LINE
  8
0
 10
-15.7437
 20
30.4427
 11
-15.5059
 21
30.7068
  0
LINE
  8
0
 10
-15.5059
 20
30.7068
 11
-15.2184
 21
30.9157
  0
LINE
  8
0
 10
-15.2184
 20
30.9157
 11
-14.8937
 21
31.0603
  0
LINE
  8
0
 10
-14.8937
 20
31.0603
 11
-14.5461
 21
31.1342
  0
LINE
  8
0
 10
-14.5461
 20
31.1342
 11
-14.1907
 21
31.1342
  0
LINE
  8
0
 10
-14.1907
 20
31.1342
 11
-13.843
 21
31.0603
  0
LINE
  8
0
 10
-13.843
 20
31.0603
 11
-13.5184
 21
30.9157
  0
LINE
  8
0
 10
-13.5184
 20
30.9157
 11
-13.2309
 21
30.7068
  0
LINE
  8
0
 10
-13.2309
 20
30.7068
 11
-12.993
 21
30.4427
  0
LINE
  8
0
 10
-12.993
 20
30.4427
 11
-12.8153
 21
30.1349
  0
LINE
  8
0
 10
-12.8153
 20
30.1349
 11
-12.7055
 21
29.7969
  0
LINE
  8
0
 10
-12.7055
 20
29.7969
 11
-12.6684
 21
29.4435
  0
LINE
  8
0
 10
-12.6684
 20
29.4435
 11
-12.7055
 21
29.09
  0
LINE
  8
0
 10
-12.7055
 20
29.09
 11
-12.8153
 21
28.752
  0
LINE
  8
0
 10
-12.8153
 20
28.752
 11
-12.993
 21
28.4442
  0
LINE
  8
0
 10
-12.993
 20
28.4442
 11
-13.2309
 21
28.1801
  0
LINE
  8
0
 10
-13.2309
 20
28.1801
 11
-13.5184
 21
27.9712
  0
LINE
  8
0
 10
-13.5184
 20
27.9712
 11
-13.843
 21
27.8267
  0
LINE
  8
0
 10
-13.843
 20
27.8267
 11
-14.1907
 21
27.7528
  0
LINE
  8
0
 10
-14.1907
 20
27.7528
 11
-14.5461
 21
27.7528
  0
LINE
  8
0
 10
59.8345
 20
21.0477
 11
59.4868
 21
21.1216
  0
LINE
  8
0
 10
59.4868
 20
21.1216
 11
59.1622
 21
21.2661
  0
LINE
  8
0
 10
59.1622
 20
21.2661
 11
58.8746
 21
21.475
  0
LINE
  8
0
 10
58.8746
 20
21.475
 11
58.6368
 21
21.7391
  0
LINE
  8
0
 10
58.6368
 20
21.7391
 11
58.4591
 21
22.0469
  0
LINE
  8
0
 10
58.4591
 20
22.0469
 11
58.3493
 21
22.3849
  0
LINE
  8
0
 10
58.3493
 20
22.3849
 11
58.3121
 21
22.7384
  0
LINE
  8
0
 10
58.3121
 20
22.7384
 11
58.3493
 21
23.0918
  0
LINE
  8
0
 10
58.3493
 20
23.0918
 11
58.4591
 21
23.4298
  0
LINE
  8
0
 10
58.4591
 20
23.4298
 11
58.6368
 21
23.7376
  0
LINE
  8
0
 10
58.6368
 20
23.7376
 11
58.8746
 21
24.0017
  0
LINE
  8
0
 10
58.8746
 20
24.0017
 11
59.1622
 21
24.2106
  0
LINE
  8
0
 10
59.1622
 20
24.2106
 11
59.4868
 21
24.3552
  0
LINE
  8
0
 10
59.4868
 20
24.3552
 11
59.8345
 21
24.429
  0
LINE
  8
0
 10
59.8345
 20
24.429
 11
60.1898
 21
24.429
  0
LINE
  8
0
 10
60.1898
 20
24.429
 11
60.5375
 21
24.3552
  0
LINE
  8
0
 10
60.5375
 20
24.3552
 11
60.8622
 21
24.2106
  0
LINE
  8
0
 10
60.8622
 20
24.2106
 11
61.1497
 21
24.0017
  0
LINE
  8
0
 10
61.1497
 20
24.0017
 11
61.3875
 21
23.7376
  0
LINE
  8
0
 10
61.3875
 20
23.7376
 11
61.5652
 21
23.4298
  0
LINE
  8
0
 10
61.5652
 20
23.4298
 11
61.675
 21
23.0918
  0
LINE
  8
0
 10
61.675
 20
23.0918
 11
61.7121
 21
22.7384
  0
LINE
  8
0
 10
61.7121
 20
22.7384
 11
61.675
 21
22.3849
  0
LINE
  8
0
 10
61.675
 20
22.3849
 11
61.5652
 21
22.0469
  0
LINE
  8
0
 10
61.5652
 20
22.0469
 11
61.3875
 21
21.7391
  0
LINE
  8
0
 10
61.3875
 20
21.7391
 11
61.1497
 21
21.475
  0
LINE
  8
0
 10
61.1497
 20
21.475
 11
60.8622
 21
21.2661
  0
LINE
  8
0
 10
60.8622
 20
21.2661
 11
60.5375
 21
21.1216
  0
LINE
  8
0
 10
60.5375
 20
21.1216
 11
60.1898
 21
21.0477
  0
LINE
  8
0
 10
60.1898
 20
21.0477
 11
59.8345
 21
21.0477
  0
LINE
  8
0
 10
69.8859
 20
-45.4451
 11
69.5383
 21
-45.3712
  0
LINE
  8
0
 10
69.5383
 20
-45.3712
 11
69.2136
 21
-45.2267
  0
LINE
  8
0
 10
69.2136
 20
-45.2267
 11
68.9261
 21
-45.0178
  0
LINE
  8
0
 10
68.9261
 20
-45.0178
 11
68.6883
 21
-44.7537
  0
LINE
  8
0
 10
68.6883
 20
-44.7537
 11
68.5106
 21
-44.4459
  0
LINE
  8
0
 10
68.5106
 20
-44.4459
 11
68.4008
 21
-44.1079
  0
LINE
  8
0
 10
68.4008
 20
-44.1079
 11
68.3636
 21
-43.7545
  0
LINE
  8
0
 10
68.3636
 20
-43.7545
 11
68.4008
 21
-43.401
  0
LINE
  8
0
 10
68.4008
 20
-43.401
 11
68.5106
 21
-43.063
  0
LINE
  8
0
 10
68.5106
 20
-43.063
 11
68.6883
 21
-42.7552
  0
LINE
  8
0
 10
68.6883
 20
-42.7552
 11
68.9261
 21
-42.4911
  0
LINE
  8
0
 10
68.9261
 20
-42.4911
 11
69.2136
 21
-42.2822
  0
LINE
  8
0
 10
69.2136
 20
-42.2822
 11
69.5383
 21
-42.1376
  0
LINE
  8
0
 10
69.5383
 20
-42.1376
 11
69.8859
 21
-42.0638
  0
LINE
  8
0
 10
69.8859
 20
-42.0638
 11
70.2413
 21
-42.0638
  0
LINE
  8
0
 10
70.2413
 20
-42.0638
 11
70.5889
 21
-42.1376
  0
LINE
  8
0
 10
70.5889
 20
-42.1376
 11
70.9136
 21
-42.2822
  0
LINE
  8
0
 10
70.9136
 20
-42.2822
 11
71.2011
 21
-42.4911
  0
LINE
  8
0
 10
71.2011
 20
-42.4911
 11
71.4389
 21
-42.7552
  0
LINE
  8
0
 10
71.4389
 20
-42.7552
 11
71.6166
 21
-43.063
  0
LINE
  8
0
 10
71.6166
 20
-43.063
 11
71.7265
 21
-43.401
  0
LINE
  8
0
 10
71.7265
 20
-43.401
 11
71.7636
 21
-43.7545
  0
LINE
  8
0
 10
71.7636
 20
-43.7545
 11
71.7265
 21
-44.1079
  0
LINE
  8
0
 10
71.7265
 20
-44.1079
 11
71.6166
 21
-44.4459
  0
LINE
  8
0
 10
71.6166
 20
-44.4459
 11
71.4389
 21
-44.7537
  0
LINE
  8
0
 10
71.4389
 20
-44.7537
 11
71.2011
 21
-45.0178
  0
LINE
  8
0
 10
71.2011
 20
-45.0178
 11
70.9136
 21
-45.2267
  0
LINE
  8
0
 10
70.9136
 20
-45.2267
 11
70.5889
 21
-45.3712
  0
LINE
  8
0
 10
70.5889
 20
-45.3712
 11
70.2413
 21
-45.4451
  0
LINE
  8
0
 10
70.2413
 20
-45.4451
 11
69.8859
 21
-45.4451
  0
LINE
  8
0
 10
-9.04729
 20
-52.0918
 11
-9.39491
 21
-52.0179
  0
LINE
  8
0
 10
-9.39491
 20
-52.0179
 11
-9.71959
 21
-51.8733
  0
LINE
  8
0
 10
-9.71959
 20
-51.8733
 11
-10.0071
 21
-51.6644
  0
LINE
  8
0
 10
-10.0071
 20
-51.6644
 11
-10.2449
 21
-51.4003
  0
LINE
  8
0
 10
-10.2449
 20
-51.4003
 11
-10.4226
 21
-51.0925
  0
LINE
  8
0
 10
-10.4226
 20
-51.0925
 11
-10.5324
 21
-50.7545
  0
LINE
  8
0
 10
-10.5324
 20
-50.7545
 11
-10.5696
 21
-50.4011
  0
LINE
  8
0
 10
-10.5696
 20
-50.4011
 11
-10.5324
 21
-50.0476
  0
LINE
  8
0
 10
-10.5324
 20
-50.0476
 11
-10.4226
 21
-49.7096
  0
LINE
  8
0
 10
-10.4226
 20
-49.7096
 11
-10.2449
 21
-49.4018
  0
LINE
  8
0
 10
-10.2449
 20
-49.4018
 11
-10.0071
 21
-49.1377
  0
LINE
  8
0
 10
-10.0071
 20
-49.1377
 11
-9.71959
 21
-48.9288
  0
LINE
  8
0
 10
-9.71959
 20
-48.9288
 11
-9.39491
 21
-48.7843
  0
LINE
  8
0
 10
-9.39491
 20
-48.7843
 11
-9.04729
 21
-48.7104
  0
LINE
  8
0
 10
-9.04729
 20
-48.7104
 11
-8.69189
 21
-48.7104
  0
LINE
  8
0
 10
-8.69189
 20
-48.7104
 11
-8.34425
 21
-48.7843
  0
LINE
  8
0
 10
-8.34425
 20
-48.7843
 11
-8.01959
 21
-48.9288
  0
LINE
  8
0
 10
-8.01959
 20
-48.9288
 11
-7.73207
 21
-49.1377
  0
LINE
  8
0
 10
-7.73207
 20
-49.1377
 11
-7.49426
 21
-49.4018
  0
LINE
  8
0
 10
-7.49426
 20
-49.4018
 11
-7.31656
 21
-49.7096
  0
LINE
  8
0
 10
-7.31656
 20
-49.7096
 11
-7.20674
 21
-50.0476
  0
LINE
  8
0
 10
-7.20674
 20
-50.0476
 11
-7.16959
 21
-50.4011
  0
LINE
  8
0
 10
-7.16959
 20
-50.4011
 11
-7.20674
 21
-50.7545
  0
LINE
  8
0
 10
-7.20674
 20
-50.7545
 11
-7.31656
 21
-51.0925
  0
LINE
  8
0
 10
-7.31656
 20
-51.0925
 11
-7.49426
 21
-51.4003
  0
LINE
  8
0
 10
-7.49426
 20
-51.4003
 11
-7.73207
 21
-51.6644
  0
LINE
  8
0
 10
-7.73207
 20
-51.6644
 11
-8.01959
 21
-51.8733
  0
LINE
  8
0
 10
-8.01959
 20
-51.8733
 11
-8.34425
 21
-52.0179
  0
LINE
  8
0
 10
-8.34425
 20
-52.0179
 11
-8.69189
 21
-52.0918
  0
LINE
  8
0
 10
-8.69189
 20
-52.0918
 11
-9.04729
 21
-52.0918
  0
LINE
  8
0
 10
18.7871
 20
-82.1565
 11
18.4395
 21
-82.0826
  0
LINE
  8
0
 10
18.4395
 20
-82.0826
 11
18.1149
 21
-81.9381
  0
LINE
  8
0
 10
18.1149
 20
-81.9381
 11
17.8273
 21
-81.7292
  0
LINE
  8
0
 10
17.8273
 20
-81.7292
 11
17.5895
 21
-81.4651
  0
LINE
  8
0
 10
17.5895
 20
-81.4651
 11
17.4118
 21
-81.1573
  0
LINE
  8
0
 10
17.4118
 20
-81.1573
 11
17.302
 21
-80.8193
  0
LINE
  8
0
 10
17.302
 20
-80.8193
 11
17.2648
 21
-80.4658
  0
LINE
  8
0
 10
17.2648
 20
-80.4658
 11
17.302
 21
-80.1124
  0
LINE
  8
0
 10
17.302
 20
-80.1124
 11
17.4118
 21
-79.7744
  0
LINE
  8
0
 10
17.4118
 20
-79.7744
 11
17.5895
 21
-79.4666
  0
LINE
  8
0
 10
17.5895
 20
-79.4666
 11
17.8273
 21
-79.2025
  0
LINE
  8
0
 10
17.8273
 20
-79.2025
 11
18.1149
 21
-78.9936
  0
LINE
  8
0
 10
18.1149
 20
-78.9936
 11
18.4395
 21
-78.849
  0
LINE
  8
0
 10
18.4395
 20
-78.849
 11
18.7871
 21
-78.7751
  0
LINE
  8
0
 10
18.7871
 20
-78.7751
 11
19.1425
 21
-78.7751
  0
LINE
  8
0
 10
19.1425
 20
-78.7751
 11
19.4902
 21
-78.849
  0
LINE
  8
0
 10
19.4902
 20
-78.849
 11
19.8148
 21
-78.9936
  0
LINE
  8
0
 10
19.8148
 20
-78.9936
 11
20.1024
 21
-79.2025
  0
LINE
  8
0
 10
20.1024
 20
-79.2025
 11
20.3402
 21
-79.4666
  0
LINE
  8
0
 10
20.3402
 20
-79.4666
 11
20.5179
 21
-79.7744
  0
LINE
  8
0
 10
20.5179
 20
-79.7744
 11
20.6277
 21
-80.1124
  0
LINE
  8
0
 10
20.6277
 20
-80.1124
 11
20.6648
 21
-80.4658
  0
LINE
  8
0
 10
20.6648
 20
-80.4658
 11
20.6277
 21
-80.8193
  0
LINE
  8
0
 10
20.6277
 20
-80.8193
 11
20.5179
 21
-81.1573
  0
LINE
  8
0
 10
20.5179
 20
-81.1573
 11
20.3402
 21
-81.4651
  0
LINE
  8
0
 10
20.3402
 20
-81.4651
 11
20.1024
 21
-81.7292
  0
LINE
  8
0
 10
20.1024
 20
-81.7292
 11
19.8148
 21
-81.9381
  0
LINE
  8
0
 10
19.8148
 20
-81.9381
 11
19.4902
 21
-82.0826
  0
LINE
  8
0
 10
19.4902
 20
-82.0826
 11
19.1425
 21
-82.1565
  0
LINE
  8
0
 10
19.1425
 20
-82.1565
 11
18.7871
 21
-82.1565
  0
ENDSEC
  0
SECTION
  2
OBJECTS
  0
DICTIONARY
  0
ENDSEC
  0
EOF
