  0
SECTION
  2
BLOCKS
  0
ENDSEC
  0
SECTION
  2
ENTITIES
  0
LINE
  8
0
 10
53.6697
 20
-89.2125
 11
63.107
 21
-82.1927
  0
LINE
  8
0
 10
63.107
 20
-82.1927
 11
67.5768
 21
-65.7457
  0
LINE
  8
0
 10
67.5768
 20
-65.7457
 11
70.8303
 21
-62.3553
  0
LINE
  8
0
 10
70.8303
 20
-62.3553
 11
78.0373
 21
-39.6624
  0
LINE
  8
0
 10
78.0373
 20
-39.6624
 11
73.7305
 21
-29.2614
  0
LINE
  8
0
 10
73.7305
 20
-29.2614
 11
72.0641
 21
-28.5227
  0
LINE
  8
0
 10
72.0641
 20
-28.5227
 11
60.8899
 21
-25.7367
  0
LINE
  8
0
 10
60.8899
 20
-25.7367
 11
52.4946
 21
-29.7618
  0
LINE
  8
0
 10
52.4946
 20
-29.7618
 11
57.0615
 21
-15.0939
  0
LINE
  8
0
 10
57.0615
 20
-15.0939
 11
58.066
 21
-8.47499
  0
LINE
  8
0
 10
58.066
 20
-8.47499
 11
58.066
 21
8.47499
  0
LINE
  8
0
 10
58.066
 20
8.47499
 11
57.0615
 21
15.0939
  0
LINE
  8
0
 10
57.0615
 20
15.0939
 11
52.0719
 21
31.1192
  0
LINE
  8
0
 10
52.0719
 20
31.1192
 11
42.9719
 21
40.2192
  0
LINE
  8
0
 10
42.9719
 20
40.2192
 11
38.2237
 21
41.6212
  0
LINE
  8
0
 10
38.2237
 20
41.6212
 11
27.8338
 21
41.6212
  0
LINE
  8
0
 10
27.8338
 20
41.6212
 11
28.8355
 21
42.3489
  0
LINE
  8
0
 10
28.8355
 20
42.3489
 11
28.2224
 21
44.4412
  0
LINE
  8
0
 10
28.2224
 20
44.4412
 11
19.0775
 21
44.4412
  0
LINE
  8
0
 10
19.0775
 20
44.4412
 11
16.5048
 21
43.5141
  0
LINE
  8
0
 10
16.5048
 20
43.5141
 11
13.4109
 21
41.6212
  0
LINE
  8
0
 10
13.4109
 20
41.6212
 11
3.80069
 21
41.6212
  0
LINE
  8
0
 10
3.80069
 20
41.6212
 11
1.33264
 21
40.6942
  0
LINE
  8
0
 10
1.33264
 20
40.6942
 11
-7.30315
 21
21.475
  0
LINE
  8
0
 10
-7.30315
 20
21.475
 11
-17.6229
 21
21.475
  0
LINE
  8
0
 10
-17.6229
 20
21.475
 11
-19.8474
 21
20.1733
  0
LINE
  8
0
 10
-19.8474
 20
20.1733
 11
-21.3335
 21
13.8269
  0
LINE
  8
0
 10
-21.3335
 20
13.8269
 11
-22.053
 21
11.2598
  0
LINE
  8
0
 10
-22.053
 20
11.2598
 11
-16.6083
 21
-5.1734
  0
LINE
  8
0
 10
-16.6083
 20
-5.1734
 11
-15.2133
 21
-13.675
  0
LINE
  8
0
 10
-15.2133
 20
-13.675
 11
-15.2133
 21
-30.325
  0
LINE
  8
0
 10
-15.2133
 20
-30.325
 11
-16.6083
 21
-38.8266
  0
LINE
  8
0
 10
-16.6083
 20
-38.8266
 11
-22.053
 21
-55.2598
  0
LINE
  8
0
 10
-22.053
 20
-55.2598
 11
-21.3335
 21
-57.8269
  0
LINE
  8
0
 10
-21.3335
 20
-57.8269
 11
-19.8474
 21
-64.1733
  0
LINE
  8
0
 10
-19.8474
 20
-64.1733
 11
-17.6229
 21
-65.475
  0
LINE
  8
0
 10
-17.6229
 20
-65.475
 11
-5.60678
 21
-65.475
  0
LINE
  8
0
 10
-5.60678
 20
-65.475
 11
-4.82121
 21
-63.4928
  0
LINE
  8
0
 10
-4.82121
 20
-63.4928
 11
-7.03566
 21
-61.6432
  0
LINE
  8
0
 10
-7.03566
 20
-61.6432
 11
-0.810028
 21
-61.6432
  0
LINE
  8
0
 10
-0.810028
 20
-61.6432
 11
8.12704
 21
-76.3248
  0
LINE
  8
0
 10
8.12704
 20
-76.3248
 11
9.22865
 21
-76.9226
  0
LINE
  8
0
 10
9.22865
 20
-76.9226
 11
25.6384
 21
-81.6429
  0
LINE
  8
0
 10
25.6384
 20
-81.6429
 11
38.4619
 21
-84.8401
  0
LINE
  8
0
 10
38.4619
 20
-84.8401
 11
38.6545
 21
-85.3609
  0
LINE
  8
0
 10
38.6545
 20
-85.3609
 11
40.3799
 21
-85.899
  0
LINE
  8
0
 10
40.3799
 20
-85.899
 11
53.6697
 21
-89.2125
  0
LINE
  8
0
 10
52.4435
 20
-86.5329
 11
40.936
 21
-83.6638
  0
LINE
  8
0
 10
40.936
 20
-83.6638
 11
40.5098
 21
-83.0889
  0
LINE
  8
0
 10
40.5098
 20
-83.0889
 11
39.0648
 21
-82.513
  0
LINE
  8
0
 10
39.0648
 20
-82.513
 11
24.8842
 21
-78.9773
  0
LINE
  8
0
 10
24.8842
 20
-78.9773
 11
24.4353
 21
-78.845
  0
LINE
  8
0
 10
24.4353
 20
-78.845
 11
24.5865
 21
-78.6771
  0
LINE
  8
0
 10
24.5865
 20
-78.6771
 11
24.9679
 21
-78.0165
  0
LINE
  8
0
 10
24.9679
 20
-78.0165
 11
25.2037
 21
-77.2909
  0
LINE
  8
0
 10
25.2037
 20
-77.2909
 11
25.2834
 21
-76.5323
  0
LINE
  8
0
 10
25.2834
 20
-76.5323
 11
25.2037
 21
-75.7736
  0
LINE
  8
0
 10
25.2037
 20
-75.7736
 11
24.9679
 21
-75.048
  0
LINE
  8
0
 10
24.9679
 20
-75.048
 11
24.5865
 21
-74.3874
  0
LINE
  8
0
 10
24.5865
 20
-74.3874
 11
24.076
 21
-73.8204
  0
LINE
  8
0
 10
24.076
 20
-73.8204
 11
23.4588
 21
-73.372
  0
LINE
  8
0
 10
23.4588
 20
-73.372
 11
22.7619
 21
-73.0618
  0
LINE
  8
0
 10
22.7619
 20
-73.0618
 11
22.0157
 21
-72.9032
  0
LINE
  8
0
 10
22.0157
 20
-72.9032
 11
21.2529
 21
-72.9032
  0
LINE
  8
0
 10
21.2529
 20
-72.9032
 11
20.5067
 21
-73.0618
  0
LINE
  8
0
 10
20.5067
 20
-73.0618
 11
19.8098
 21
-73.372
  0
LINE
  8
0
 10
19.8098
 20
-73.372
 11
19.1926
 21
-73.8204
  0
LINE
  8
0
 10
19.1926
 20
-73.8204
 11
18.6821
 21
-74.3874
  0
LINE
  8
0
 10
18.6821
 20
-74.3874
 11
18.3007
 21
-75.048
  0
LINE
  8
0
 10
18.3007
 20
-75.048
 11
18.065
 21
-75.7736
  0
LINE
  8
0
 10
18.065
 20
-75.7736
 11
17.9852
 21
-76.5323
  0
LINE
  8
0
 10
17.9852
 20
-76.5323
 11
18.0298
 21
-76.9568
  0
LINE
  8
0
 10
18.0298
 20
-76.9568
 11
9.74988
 21
-74.516
  0
LINE
  8
0
 10
9.74988
 20
-74.516
 11
1.38474
 21
-59.8634
  0
LINE
  8
0
 10
1.38474
 20
-59.8634
 11
-0.714691
 21
-58.1
  0
LINE
  8
0
 10
-0.714691
 20
-58.1
 11
-11.3279
 21
-58.1
  0
LINE
  8
0
 10
-11.3279
 20
-58.1
 11
-12.4465
 21
-59.8799
  0
LINE
  8
0
 10
-12.4465
 20
-59.8799
 11
-9.99251
 21
-62.1912
  0
LINE
  8
0
 10
-9.99251
 20
-62.1912
 11
-14.9102
 21
-62.1912
  0
LINE
  8
0
 10
-14.9102
 20
-62.1912
 11
-14.7207
 21
-62.0536
  0
LINE
  8
0
 10
-14.7207
 20
-62.0536
 11
-14.2103
 21
-61.4866
  0
LINE
  8
0
 10
-14.2103
 20
-61.4866
 11
-13.8288
 21
-60.826
  0
LINE
  8
0
 10
-13.8288
 20
-60.826
 11
-13.5931
 21
-60.1004
  0
LINE
  8
0
 10
-13.5931
 20
-60.1004
 11
-13.5134
 21
-59.3418
  0
LINE
  8
0
 10
-13.5134
 20
-59.3418
 11
-13.5931
 21
-58.5831
  0
LINE
  8
0
 10
-13.5931
 20
-58.5831
 11
-13.8288
 21
-57.8575
  0
LINE
  8
0
 10
-13.8288
 20
-57.8575
 11
-14.2103
 21
-57.1969
  0
LINE
  8
0
 10
-14.2103
 20
-57.1969
 11
-14.7207
 21
-56.63
  0
LINE
  8
0
 10
-14.7207
 20
-56.63
 11
-15.3379
 21
-56.1815
  0
LINE
  8
0
 10
-15.3379
 20
-56.1815
 11
-16.0348
 21
-55.8713
  0
LINE
  8
0
 10
-16.0348
 20
-55.8713
 11
-16.781
 21
-55.7127
  0
LINE
  8
0
 10
-16.781
 20
-55.7127
 11
-17.5439
 21
-55.7127
  0
LINE
  8
0
 10
-17.5439
 20
-55.7127
 11
-18.2901
 21
-55.8713
  0
LINE
  8
0
 10
-18.2901
 20
-55.8713
 11
-18.4733
 21
-55.9529
  0
LINE
  8
0
 10
-18.4733
 20
-55.9529
 11
-13.482
 21
-39.9546
  0
LINE
  8
0
 10
-13.482
 20
-39.9546
 11
-12.0046
 21
-30.425
  0
LINE
  8
0
 10
-12.0046
 20
-30.425
 11
-12.0046
 21
-13.575
  0
LINE
  8
0
 10
-12.0046
 20
-13.575
 11
-13.482
 21
-4.04536
  0
LINE
  8
0
 10
-13.482
 20
-4.04536
 11
-18.644
 21
12.4999
  0
LINE
  8
0
 10
-18.644
 20
12.4999
 11
-18.5255
 21
12.8575
  0
LINE
  8
0
 10
-18.5255
 20
12.8575
 11
-18.4909
 21
12.8323
  0
LINE
  8
0
 10
-18.4909
 20
12.8323
 11
-17.7939
 21
12.522
  0
LINE
  8
0
 10
-17.7939
 20
12.522
 11
-17.0478
 21
12.3634
  0
LINE
  8
0
 10
-17.0478
 20
12.3634
 11
-16.2849
 21
12.3634
  0
LINE
  8
0
 10
-16.2849
 20
12.3634
 11
-15.5387
 21
12.522
  0
LINE
  8
0
 10
-15.5387
 20
12.522
 11
-14.8418
 21
12.8323
  0
LINE
  8
0
 10
-14.8418
 20
12.8323
 11
-14.2246
 21
13.2807
  0
LINE
  8
0
 10
-14.2246
 20
13.2807
 11
-13.7141
 21
13.8476
  0
LINE
  8
0
 10
-13.7141
 20
13.8476
 11
-13.3327
 21
14.5083
  0
LINE
  8
0
 10
-13.3327
 20
14.5083
 11
-13.097
 21
15.2338
  0
LINE
  8
0
 10
-13.097
 20
15.2338
 11
-13.0172
 21
15.9925
  0
LINE
  8
0
 10
-13.0172
 20
15.9925
 11
-13.097
 21
16.7512
  0
LINE
  8
0
 10
-13.097
 20
16.7512
 11
-13.3327
 21
17.4767
  0
LINE
  8
0
 10
-13.3327
 20
17.4767
 11
-13.7141
 21
18.1374
  0
LINE
  8
0
 10
-13.7141
 20
18.1374
 11
-13.7626
 21
18.1912
  0
LINE
  8
0
 10
-13.7626
 20
18.1912
 11
-7.04565
 21
18.1912
  0
LINE
  8
0
 10
-7.04565
 20
18.1912
 11
-4.82121
 21
19.4928
  0
LINE
  8
0
 10
-4.82121
 20
19.4928
 11
4.01047
 21
38.6018
  0
LINE
  8
0
 10
4.01047
 20
38.6018
 11
12.534
 21
38.6018
  0
LINE
  8
0
 10
12.534
 20
38.6018
 11
15.002
 21
39.5289
  0
LINE
  8
0
 10
15.002
 20
39.5289
 11
18.1783
 21
41.4218
  0
LINE
  8
0
 10
18.1783
 20
41.4218
 11
22.6502
 21
41.4218
  0
LINE
  8
0
 10
22.6502
 20
41.4218
 11
21.6221
 21
40.6942
  0
LINE
  8
0
 10
21.6221
 20
40.6942
 11
22.2563
 21
38.6018
  0
LINE
  8
0
 10
22.2563
 20
38.6018
 11
36.1125
 21
38.6018
  0
LINE
  8
0
 10
36.1125
 20
38.6018
 11
42.8719
 21
38.0192
  0
LINE
  8
0
 10
42.8719
 20
38.0192
 11
49.2075
 21
31.6837
  0
LINE
  8
0
 10
49.2075
 20
31.6837
 11
49.1981
 21
31.6857
  0
LINE
  8
0
 10
49.1981
 20
31.6857
 11
48.4353
 21
31.6857
  0
LINE
  8
0
 10
48.4353
 20
31.6857
 11
47.6891
 21
31.5271
  0
LINE
  8
0
 10
47.6891
 20
31.5271
 11
46.9922
 21
31.2168
  0
LINE
  8
0
 10
46.9922
 20
31.2168
 11
46.375
 21
30.7684
  0
LINE
  8
0
 10
46.375
 20
30.7684
 11
45.8645
 21
30.2014
  0
LINE
  8
0
 10
45.8645
 20
30.2014
 11
45.4831
 21
29.5408
  0
LINE
  8
0
 10
45.4831
 20
29.5408
 11
45.2474
 21
28.8153
  0
LINE
  8
0
 10
45.2474
 20
28.8153
 11
45.1676
 21
28.0566
  0
LINE
  8
0
 10
45.1676
 20
28.0566
 11
45.2474
 21
27.2979
  0
LINE
  8
0
 10
45.2474
 20
27.2979
 11
45.4831
 21
26.5723
  0
LINE
  8
0
 10
45.4831
 20
26.5723
 11
45.8645
 21
25.9117
  0
LINE
  8
0
 10
45.8645
 20
25.9117
 11
46.375
 21
25.3448
  0
LINE
  8
0
 10
46.375
 20
25.3448
 11
46.9922
 21
24.8964
  0
LINE
  8
0
 10
46.9922
 20
24.8964
 11
47.6891
 21
24.5861
  0
LINE
  8
0
 10
47.6891
 20
24.5861
 11
48.4353
 21
24.4275
  0
LINE
  8
0
 10
48.4353
 20
24.4275
 11
49.1981
 21
24.4275
  0
LINE
  8
0
 10
49.1981
 20
24.4275
 11
49.9443
 21
24.5861
  0
LINE
  8
0
 10
49.9443
 20
24.5861
 11
50.6413
 21
24.8964
  0
LINE
  8
0
 10
50.6413
 20
24.8964
 11
51.2584
 21
25.3448
  0
LINE
  8
0
 10
51.2584
 20
25.3448
 11
51.541
 21
25.6586
  0
LINE
  8
0
 10
51.541
 20
25.6586
 11
54.8615
 21
14.9939
  0
LINE
  8
0
 10
54.8615
 20
14.9939
 11
55.866
 21
8.375
  0
LINE
  8
0
 10
55.866
 20
8.375
 11
55.866
 21
-8.375
  0
LINE
  8
0
 10
55.866
 20
-8.375
 11
54.8615
 21
-14.9939
  0
LINE
  8
0
 10
54.8615
 20
-14.9939
 11
49.8719
 21
-31.0192
  0
LINE
  8
0
 10
49.8719
 20
-31.0192
 11
49.8719
 21
-31.1192
  0
LINE
  8
0
 10
49.8719
 20
-31.1192
 11
52.0719
 21
-31.1192
  0
LINE
  8
0
 10
52.0719
 20
-31.1192
 11
61.4819
 21
-28.4624
  0
LINE
  8
0
 10
61.4819
 20
-28.4624
 11
71.4722
 21
-30.9533
  0
LINE
  8
0
 10
71.4722
 20
-30.9533
 11
73.0349
 21
-34.7271
  0
LINE
  8
0
 10
73.0349
 20
-34.7271
 11
72.9798
 21
-34.7271
  0
LINE
  8
0
 10
72.9798
 20
-34.7271
 11
72.2336
 21
-34.8857
  0
LINE
  8
0
 10
72.2336
 20
-34.8857
 11
71.5367
 21
-35.196
  0
LINE
  8
0
 10
71.5367
 20
-35.196
 11
70.9196
 21
-35.6444
  0
LINE
  8
0
 10
70.9196
 20
-35.6444
 11
70.4091
 21
-36.2113
  0
LINE
  8
0
 10
70.4091
 20
-36.2113
 11
70.0277
 21
-36.872
  0
LINE
  8
0
 10
70.0277
 20
-36.872
 11
69.7919
 21
-37.5975
  0
LINE
  8
0
 10
69.7919
 20
-37.5975
 11
69.7122
 21
-38.3562
  0
LINE
  8
0
 10
69.7122
 20
-38.3562
 11
69.7919
 21
-39.1149
  0
LINE
  8
0
 10
69.7919
 20
-39.1149
 11
70.0277
 21
-39.8404
  0
LINE
  8
0
 10
70.0277
 20
-39.8404
 11
70.4091
 21
-40.5011
  0
LINE
  8
0
 10
70.4091
 20
-40.5011
 11
70.9196
 21
-41.068
  0
LINE
  8
0
 10
70.9196
 20
-41.068
 11
71.5367
 21
-41.5164
  0
LINE
  8
0
 10
71.5367
 20
-41.5164
 11
72.2336
 21
-41.8267
  0
LINE
  8
0
 10
72.2336
 20
-41.8267
 11
72.9798
 21
-41.9853
  0
LINE
  8
0
 10
72.9798
 20
-41.9853
 11
73.5588
 21
-41.9853
  0
LINE
  8
0
 10
73.5588
 20
-41.9853
 11
67.4893
 21
-61.0966
  0
LINE
  8
0
 10
67.4893
 20
-61.0966
 11
64.1727
 21
-64.6861
  0
LINE
  8
0
 10
64.1727
 20
-64.6861
 11
59.703
 21
-81.133
  0
LINE
  8
0
 10
59.703
 20
-81.133
 11
52.4435
 21
-86.5329
  0
LINE
  8
0
 10
48.639
 20
26.3659
 11
48.2914
 21
26.4398
  0
LINE
  8
0
 10
48.2914
 20
26.4398
 11
47.9667
 21
26.5843
  0
LINE
  8
0
 10
47.9667
 20
26.5843
 11
47.6792
 21
26.7932
  0
LINE
  8
0
 10
47.6792
 20
26.7932
 11
47.4414
 21
27.0573
  0
LINE
  8
0
 10
47.4414
 20
27.0573
 11
47.2637
 21
27.3651
  0
LINE
  8
0
 10
47.2637
 20
27.3651
 11
47.1539
 21
27.7031
  0
LINE
  8
0
 10
47.1539
 20
27.7031
 11
47.1167
 21
28.0566
  0
LINE
  8
0
 10
47.1167
 20
28.0566
 11
47.1539
 21
28.41
  0
LINE
  8
0
 10
47.1539
 20
28.41
 11
47.2637
 21
28.748
  0
LINE
  8
0
 10
47.2637
 20
28.748
 11
47.4414
 21
29.0558
  0
LINE
  8
0
 10
47.4414
 20
29.0558
 11
47.6792
 21
29.3199
  0
LINE
  8
0
 10
47.6792
 20
29.3199
 11
47.9667
 21
29.5288
  0
LINE
  8
0
 10
47.9667
 20
29.5288
 11
48.2914
 21
29.6734
  0
LINE
  8
0
 10
48.2914
 20
29.6734
 11
48.639
 21
29.7473
  0
LINE
  8
0
 10
48.639
 20
29.7473
 11
48.9944
 21
29.7473
  0
LINE
  8
0
 10
48.9944
 20
29.7473
 11
49.342
 21
29.6734
  0
LINE
  8
0
 10
49.342
 20
29.6734
 11
49.6667
 21
29.5288
  0
LINE
  8
0
 10
49.6667
 20
29.5288
 11
49.9542
 21
29.3199
  0
LINE
  8
0
 10
49.9542
 20
29.3199
 11
50.192
 21
29.0558
  0
LINE
  8
0
 10
50.192
 20
29.0558
 11
50.3697
 21
28.748
  0
LINE
  8
0
 10
50.3697
 20
28.748
 11
50.4796
 21
28.41
  0
LINE
  8
0
 10
50.4796
 20
28.41
 11
50.5167
 21
28.0566
  0
LINE
  8
0
 10
50.5167
 20
28.0566
 11
50.4796
 21
27.7031
  0
LINE
  8
0
 10
50.4796
 20
27.7031
 11
50.3697
 21
27.3651
  0
LINE
  8
0
 10
50.3697
 20
27.3651
 11
50.192
 21
27.0573
  0
LINE
  8
0
 10
50.192
 20
27.0573
 11
49.9542
 21
26.7932
  0
LINE
  8
0
 10
49.9542
 20
26.7932
 11
49.6667
 21
26.5843
  0
LINE
  8
0
 10
49.6667
 20
26.5843
 11
49.342
 21
26.4398
  0
LINE
  8
0
 10
49.342
 20
26.4398
 11
48.9944
 21
26.3659
  0
LINE
  8
0
 10
48.9944
 20
26.3659
 11
48.639
 21
26.3659
  0
LINE
  8
0
 10
-16.844
 20
14.3018
 11
-17.1917
 21
14.3757
  0
LINE
  8
0
 10
-17.1917
 20
14.3757
 11
-17.5163
 21
14.5203
  0
LINE
  8
0
 10
-17.5163
 20
14.5203
 11
-17.8038
 21
14.7292
  0
LINE
  8
0
 10
-17.8038
 20
14.7292
 11
-18.0416
 21
14.9933
  0
LINE
  8
0
 10
-18.0416
 20
14.9933
 11
-18.2193
 21
15.3011
  0
LINE
  8
0
 10
-18.2193
 20
15.3011
 11
-18.3292
 21
15.6391
  0
LINE
  8
0
 10
-18.3292
 20
15.6391
 11
-18.3663
 21
15.9925
  0
LINE
  8
0
 10
-18.3663
 20
15.9925
 11
-18.3292
 21
16.346
  0
LINE
  8
0
 10
-18.3292
 20
16.346
 11
-18.2193
 21
16.684
  0
LINE
  8
0
 10
-18.2193
 20
16.684
 11
-18.0416
 21
16.9918
  0
LINE
  8
0
 10
-18.0416
 20
16.9918
 11
-17.8038
 21
17.2559
  0
LINE
  8
0
 10
-17.8038
 20
17.2559
 11
-17.5163
 21
17.4648
  0
LINE
  8
0
 10
-17.5163
 20
17.4648
 11
-17.1917
 21
17.6093
  0
LINE
  8
0
 10
-17.1917
 20
17.6093
 11
-16.844
 21
17.6832
  0
LINE
  8
0
 10
-16.844
 20
17.6832
 11
-16.4886
 21
17.6832
  0
LINE
  8
0
 10
-16.4886
 20
17.6832
 11
-16.141
 21
17.6093
  0
LINE
  8
0
 10
-16.141
 20
17.6093
 11
-15.8163
 21
17.4648
  0
LINE
  8
0
 10
-15.8163
 20
17.4648
 11
-15.5288
 21
17.2559
  0
LINE
  8
0
 10
-15.5288
 20
17.2559
 11
-15.291
 21
16.9918
  0
LINE
  8
0
 10
-15.291
 20
16.9918
 11
-15.1133
 21
16.684
  0
LINE
  8
0
 10
-15.1133
 20
16.684
 11
-15.0035
 21
16.346
  0
LINE
  8
0
 10
-15.0035
 20
16.346
 11
-14.9663
 21
15.9925
  0
LINE
  8
0
 10
-14.9663
 20
15.9925
 11
-15.0035
 21
15.6391
  0
LINE
  8
0
 10
-15.0035
 20
15.6391
 11
-15.1133
 21
15.3011
  0
LINE
  8
0
 10
-15.1133
 20
15.3011
 11
-15.291
 21
14.9933
  0
LINE
  8
0
 10
-15.291
 20
14.9933
 11
-15.5288
 21
14.7292
  0
LINE
  8
0
 10
-15.5288
 20
14.7292
 11
-15.8163
 21
14.5203
  0
LINE
  8
0
 10
-15.8163
 20
14.5203
 11
-16.141
 21
14.3757
  0
LINE
  8
0
 10
-16.141
 20
14.3757
 11
-16.4886
 21
14.3018
  0
LINE
  8
0
 10
-16.4886
 20
14.3018
 11
-16.844
 21
14.3018
  0
LINE
  8
0
 10
73.1836
 20
-40.0469
 11
72.8359
 21
-39.973
  0
LINE
  8
0
 10
72.8359
 20
-39.973
 11
72.5113
 21
-39.8284
  0
LINE
  8
0
 10
72.5113
 20
-39.8284
 11
72.2237
 21
-39.6196
  0
LINE
  8
0
 10
72.2237
 20
-39.6196
 11
71.9859
 21
-39.3554
  0
LINE
  8
0
 10
71.9859
 20
-39.3554
 11
71.8082
 21
-39.0477
  0
LINE
  8
0
 10
71.8082
 20
-39.0477
 11
71.6984
 21
-38.7097
  0
LINE
  8
0
 10
71.6984
 20
-38.7097
 11
71.6613
 21
-38.3562
  0
LINE
  8
0
 10
71.6613
 20
-38.3562
 11
71.6984
 21
-38.0028
  0
LINE
  8
0
 10
71.6984
 20
-38.0028
 11
71.8082
 21
-37.6647
  0
LINE
  8
0
 10
71.8082
 20
-37.6647
 11
71.9859
 21
-37.357
  0
LINE
  8
0
 10
71.9859
 20
-37.357
 11
72.2237
 21
-37.0929
  0
LINE
  8
0
 10
72.2237
 20
-37.0929
 11
72.5113
 21
-36.884
  0
LINE
  8
0
 10
72.5113
 20
-36.884
 11
72.8359
 21
-36.7394
  0
LINE
  8
0
 10
72.8359
 20
-36.7394
 11
73.1836
 21
-36.6655
  0
LINE
  8
0
 10
73.1836
 20
-36.6655
 11
73.539
 21
-36.6655
  0
LINE
  8
0
 10
73.539
 20
-36.6655
 11
73.8866
 21
-36.7394
  0
LINE
  8
0
 10
73.8866
 20
-36.7394
 11
74.2113
 21
-36.884
  0
LINE
  8
0
 10
74.2113
 20
-36.884
 11
74.4988
 21
-37.0929
  0
LINE
  8
0
 10
74.4988
 20
-37.0929
 11
74.7366
 21
-37.357
  0
LINE
  8
0
 10
74.7366
 20
-37.357
 11
74.9143
 21
-37.6647
  0
LINE
  8
0
 10
74.9143
 20
-37.6647
 11
75.0241
 21
-38.0028
  0
LINE
  8
0
 10
75.0241
 20
-38.0028
 11
75.0613
 21
-38.3562
  0
LINE
  8
0
 10
75.0613
 20
-38.3562
 11
75.0241
 21
-38.7097
  0
LINE
  8
0
 10
75.0241
 20
-38.7097
 11
74.9143
 21
-39.0477
  0
LINE
  8
0
 10
74.9143
 20
-39.0477
 11
74.7366
 21
-39.3554
  0
LINE
  8
0
 10
74.7366
 20
-39.3554
 11
74.4988
 21
-39.6196
  0
LINE
  8
0
 10
74.4988
 20
-39.6196
 11
74.2113
 21
-39.8284
  0
LINE
  8
0
 10
74.2113
 20
-39.8284
 11
73.8866
 21
-39.973
  0
LINE
  8
0
 10
73.8866
 20
-39.973
 11
73.539
 21
-40.0469
  0
LINE
  8
0
 10
73.539
 20
-40.0469
 11
73.1836
 21
-40.0469
  0
LINE
  8
0
 10
-17.3401
 20
-61.0324
 11
-17.6878
 21
-60.9586
  0
LINE
  8
0
 10
-17.6878
 20
-60.9586
 11
-18.0125
 21
-60.814
  0
LINE
  8
0
 10
-18.0125
 20
-60.814
 11
-18.3
 21
-60.6051
  0
LINE
  8
0
 10
-18.3
 20
-60.6051
 11
-18.5378
 21
-60.341
  0
LINE
  8
0
 10
-18.5378
 20
-60.341
 11
-18.7155
 21
-60.0332
  0
LINE
  8
0
 10
-18.7155
 20
-60.0332
 11
-18.8253
 21
-59.6952
  0
LINE
  8
0
 10
-18.8253
 20
-59.6952
 11
-18.8625
 21
-59.3418
  0
LINE
  8
0
 10
-18.8625
 20
-59.3418
 11
-18.8253
 21
-58.9883
  0
LINE
  8
0
 10
-18.8253
 20
-58.9883
 11
-18.7155
 21
-58.6503
  0
LINE
  8
0
 10
-18.7155
 20
-58.6503
 11
-18.5378
 21
-58.3425
  0
LINE
  8
0
 10
-18.5378
 20
-58.3425
 11
-18.3
 21
-58.0784
  0
LINE
  8
0
 10
-18.3
 20
-58.0784
 11
-18.0125
 21
-57.8695
  0
LINE
  8
0
 10
-18.0125
 20
-57.8695
 11
-17.6878
 21
-57.725
  0
LINE
  8
0
 10
-17.6878
 20
-57.725
 11
-17.3401
 21
-57.6511
  0
LINE
  8
0
 10
-17.3401
 20
-57.6511
 11
-16.9848
 21
-57.6511
  0
LINE
  8
0
 10
-16.9848
 20
-57.6511
 11
-16.6371
 21
-57.725
  0
LINE
  8
0
 10
-16.6371
 20
-57.725
 11
-16.3125
 21
-57.8695
  0
LINE
  8
0
 10
-16.3125
 20
-57.8695
 11
-16.0249
 21
-58.0784
  0
LINE
  8
0
 10
-16.0249
 20
-58.0784
 11
-15.7871
 21
-58.3425
  0
LINE
  8
0
 10
-15.7871
 20
-58.3425
 11
-15.6094
 21
-58.6503
  0
LINE
  8
0
 10
-15.6094
 20
-58.6503
 11
-15.4996
 21
-58.9883
  0
LINE
  8
0
 10
-15.4996
 20
-58.9883
 11
-15.4624
 21
-59.3418
  0
LINE
  8
0
 10
-15.4624
 20
-59.3418
 11
-15.4996
 21
-59.6952
  0
LINE
  8
0
 10
-15.4996
 20
-59.6952
 11
-15.6094
 21
-60.0332
  0
LINE
  8
0
 10
-15.6094
 20
-60.0332
 11
-15.7871
 21
-60.341
  0
LINE
  8
0
 10
-15.7871
 20
-60.341
 11
-16.0249
 21
-60.6051
  0
LINE
  8
0
 10
-16.0249
 20
-60.6051
 11
-16.3125
 21
-60.814
  0
LINE
  8
0
 10
-16.3125
 20
-60.814
 11
-16.6371
 21
-60.9586
  0
LINE
  8
0
 10
-16.6371
 20
-60.9586
 11
-16.9848
 21
-61.0324
  0
LINE
  8
0
 10
-16.9848
 20
-61.0324
 11
-17.3401
 21
-61.0324
  0
LINE
  8
0
 10
21.4566
 20
-78.2229
 11
21.109
 21
-78.149
  0
LINE
  8
0
 10
21.109
 20
-78.149
 11
20.7843
 21
-78.0045
  0
LINE
  8
0
 10
20.7843
 20
-78.0045
 11
20.4968
 21
-77.7956
  0
LINE
  8
0
 10
20.4968
 20
-77.7956
 11
20.259
 21
-77.5315
  0
LINE
  8
0
 10
20.259
 20
-77.5315
 11
20.0813
 21
-77.2237
  0
LINE
  8
0
 10
20.0813
 20
-77.2237
 11
19.9715
 21
-76.8857
  0
LINE
  8
0
 10
19.9715
 20
-76.8857
 11
19.9343
 21
-76.5323
  0
LINE
  8
0
 10
19.9343
 20
-76.5323
 11
19.9715
 21
-76.1788
  0
LINE
  8
0
 10
19.9715
 20
-76.1788
 11
20.0813
 21
-75.8408
  0
LINE
  8
0
 10
20.0813
 20
-75.8408
 11
20.259
 21
-75.533
  0
LINE
  8
0
 10
20.259
 20
-75.533
 11
20.4968
 21
-75.2689
  0
LINE
  8
0
 10
20.4968
 20
-75.2689
 11
20.7843
 21
-75.06
  0
LINE
  8
0
 10
20.7843
 20
-75.06
 11
21.109
 21
-74.9155
  0
LINE
  8
0
 10
21.109
 20
-74.9155
 11
21.4566
 21
-74.8416
  0
LINE
  8
0
 10
21.4566
 20
-74.8416
 11
21.812
 21
-74.8416
  0
LINE
  8
0
 10
21.812
 20
-74.8416
 11
22.1596
 21
-74.9155
  0
LINE
  8
0
 10
22.1596
 20
-74.9155
 11
22.4843
 21
-75.06
  0
LINE
  8
0
 10
22.4843
 20
-75.06
 11
22.7718
 21
-75.2689
  0
LINE
  8
0
 10
22.7718
 20
-75.2689
 11
23.0096
 21
-75.533
  0
LINE
  8
0
 10
23.0096
 20
-75.533
 11
23.1873
 21
-75.8408
  0
LINE
  8
0
 10
23.1873
 20
-75.8408
 11
23.2971
 21
-76.1788
  0
LINE
  8
0
 10
23.2971
 20
-76.1788
 11
23.3343
 21
-76.5323
  0
LINE
  8
0
 10
23.3343
 20
-76.5323
 11
23.2971
 21
-76.8857
  0
LINE
  8
0
 10
23.2971
 20
-76.8857
 11
23.1873
 21
-77.2237
  0
LINE
  8
0
 10
23.1873
 20
-77.2237
 11
23.0096
 21
-77.5315
  0
LINE
  8
0
 10
23.0096
 20
-77.5315
 11
22.7718
 21
-77.7956
  0
LINE
  8
0
 10
22.7718
 20
-77.7956
 11
22.4843
 21
-78.0045
  0
LINE
  8
0
 10
22.4843
 20
-78.0045
 11
22.1596
 21
-78.149
  0
LINE
  8
0
 10
22.1596
 20
-78.149
 11
21.812
 21
-78.2229
  0
LINE
  8
0
 10
21.812
 20
-78.2229
 11
21.4566
 21
-78.2229
  0
ENDSEC
  0
SECTION
  2
OBJECTS
  0
DICTIONARY
  0
ENDSEC
  0
EOF
