  0
SECTION
  2
BLOCKS
  0
ENDSEC
  0
SECTION
  2
ENTITIES
  0
LINE
  8
0
 10
-78.0373
 20
-39.6624
 11
-78.03
 21
-39.6854
  0
LINE
  8
0
 10
-78.03
 20
-39.6854
 11
-72.5699
 21
-56.8776
  0
LINE
  8
0
 10
-72.5699
 20
-56.8776
 11
-70.8303
 21
-62.3553
  0
LINE
  8
0
 10
-70.8303
 20
-62.3553
 11
-69.9078
 21
-63.3166
  0
LINE
  8
0
 10
-69.9078
 20
-63.3166
 11
-67.5768
 21
-65.7457
  0
LINE
  8
0
 10
-67.5768
 20
-65.7457
 11
-64.4005
 21
-77.4331
  0
LINE
  8
0
 10
-64.4005
 20
-77.4331
 11
-63.1332
 21
-82.0962
  0
LINE
  8
0
 10
-63.1332
 20
-82.0962
 11
-63.1257
 21
-82.1239
  0
LINE
  8
0
 10
-63.1257
 20
-82.1239
 11
-63.107
 21
-82.1927
  0
LINE
  8
0
 10
-63.107
 20
-82.1927
 11
-60.7458
 21
-83.949
  0
LINE
  8
0
 10
-60.7458
 20
-83.949
 11
-53.6697
 21
-89.2125
  0
LINE
  8
0
 10
-53.6697
 20
-89.2125
 11
-53.6116
 21
-89.1981
  0
LINE
  8
0
 10
-53.6116
 20
-89.1981
 11
-43.7631
 21
-86.7426
  0
LINE
  8
0
 10
-43.7631
 20
-86.7426
 11
-43.7629
 21
-86.7425
  0
LINE
  8
0
 10
-43.7629
 20
-86.7425
 11
-40.442
 21
-85.9145
  0
LINE
  8
0
 10
-40.442
 20
-85.9145
 11
-40.442
 21
-85.9145
  0
LINE
  8
0
 10
-40.442
 20
-85.9145
 11
-40.3799
 21
-85.899
  0
LINE
  8
0
 10
-40.3799
 20
-85.899
 11
-40.0191
 21
-85.7865
  0
LINE
  8
0
 10
-40.0191
 20
-85.7865
 11
-38.6545
 21
-85.3609
  0
LINE
  8
0
 10
-38.6545
 20
-85.3609
 11
-38.6545
 21
-85.3609
  0
LINE
  8
0
 10
-38.6545
 20
-85.3609
 11
-38.5974
 21
-85.2064
  0
LINE
  8
0
 10
-38.5974
 20
-85.2064
 11
-38.4619
 21
-84.8401
  0
LINE
  8
0
 10
-38.4619
 20
-84.8401
 11
-28.4534
 21
-82.3447
  0
LINE
  8
0
 10
-28.4534
 20
-82.3447
 11
-28.4531
 21
-82.3447
  0
LINE
  8
0
 10
-28.4531
 20
-82.3447
 11
-25.7078
 21
-81.6602
  0
LINE
  8
0
 10
-25.7078
 20
-81.6602
 11
-25.7078
 21
-81.6602
  0
LINE
  8
0
 10
-25.7078
 20
-81.6602
 11
-25.6384
 21
-81.6429
  0
LINE
  8
0
 10
-25.6384
 20
-81.6429
 11
-11.95
 21
-77.7054
  0
LINE
  8
0
 10
-11.95
 20
-77.7054
 11
-11.9498
 21
-77.7054
  0
LINE
  8
0
 10
-11.9498
 20
-77.7054
 11
-9.22865
 21
-76.9226
  0
LINE
  8
0
 10
-9.22865
 20
-76.9226
 11
-9.05683
 21
-76.8294
  0
LINE
  8
0
 10
-9.05683
 20
-76.8294
 11
-9.05682
 21
-76.8294
  0
LINE
  8
0
 10
-9.05682
 20
-76.8294
 11
-8.12705
 21
-76.3248
  0
LINE
  8
0
 10
-8.12705
 20
-76.3248
 11
-8.12705
 21
-76.3248
  0
LINE
  8
0
 10
-8.12705
 20
-76.3248
 11
-6.3497
 21
-73.405
  0
LINE
  8
0
 10
-6.3497
 20
-73.405
 11
-6.34956
 21
-73.4048
  0
LINE
  8
0
 10
-6.34956
 20
-73.4048
 11
0.810029
 21
-61.6432
  0
LINE
  8
0
 10
0.810029
 20
-61.6432
 11
2.57586
 21
-61.6432
  0
LINE
  8
0
 10
2.57586
 20
-61.6432
 11
2.59595
 21
-61.6432
  0
LINE
  8
0
 10
2.59595
 20
-61.6432
 11
7.03566
 21
-61.6432
  0
LINE
  8
0
 10
7.03566
 20
-61.6432
 11
6.5323
 21
-62.0637
  0
LINE
  8
0
 10
6.5323
 20
-62.0637
 11
4.82121
 21
-63.4928
  0
LINE
  8
0
 10
4.82121
 20
-63.4928
 11
4.82121
 21
-63.4928
  0
LINE
  8
0
 10
4.82121
 20
-63.4928
 11
4.84598
 21
-63.5553
  0
LINE
  8
0
 10
4.84598
 20
-63.5553
 11
4.84598
 21
-63.5553
  0
LINE
  8
0
 10
4.84598
 20
-63.5553
 11
5.34134
 21
-64.8052
  0
LINE
  8
0
 10
5.34134
 20
-64.8052
 11
5.58184
 21
-65.412
  0
LINE
  8
0
 10
5.58184
 20
-65.412
 11
5.60678
 21
-65.475
  0
LINE
  8
0
 10
5.60678
 20
-65.475
 11
5.60678
 21
-65.475
  0
LINE
  8
0
 10
5.60678
 20
-65.475
 11
5.62395
 21
-65.475
  0
LINE
  8
0
 10
5.62395
 20
-65.475
 11
13.1458
 21
-65.475
  0
LINE
  8
0
 10
13.1458
 20
-65.475
 11
17.6229
 21
-65.475
  0
LINE
  8
0
 10
17.6229
 20
-65.475
 11
18.897
 21
-64.7294
  0
LINE
  8
0
 10
18.897
 20
-64.7294
 11
19.8474
 21
-64.1733
  0
LINE
  8
0
 10
19.8474
 20
-64.1733
 11
21.3336
 21
-57.8269
  0
LINE
  8
0
 10
21.3336
 20
-57.8269
 11
22.053
 21
-55.2598
  0
LINE
  8
0
 10
22.053
 20
-55.2598
 11
19.7328
 21
-48.2569
  0
LINE
  8
0
 10
19.7328
 20
-48.2569
 11
16.6083
 21
-38.8266
  0
LINE
  8
0
 10
16.6083
 20
-38.8266
 11
16.0999
 21
-35.7284
  0
LINE
  8
0
 10
16.0999
 20
-35.7284
 11
15.2133
 21
-30.325
  0
LINE
  8
0
 10
15.2133
 20
-30.325
 11
15.2133
 21
-13.675
  0
LINE
  8
0
 10
15.2133
 20
-13.675
 11
16.0999
 21
-8.27163
  0
LINE
  8
0
 10
16.0999
 20
-8.27163
 11
16.6083
 21
-5.17341
  0
LINE
  8
0
 10
16.6083
 20
-5.17341
 11
19.7328
 21
4.25688
  0
LINE
  8
0
 10
19.7328
 20
4.25688
 11
22.053
 21
11.2598
  0
LINE
  8
0
 10
22.053
 20
11.2598
 11
21.3336
 21
13.8269
  0
LINE
  8
0
 10
21.3336
 20
13.8269
 11
19.8474
 21
20.1733
  0
LINE
  8
0
 10
19.8474
 20
20.1733
 11
18.897
 21
20.7294
  0
LINE
  8
0
 10
18.897
 20
20.7294
 11
17.6229
 21
21.475
  0
LINE
  8
0
 10
17.6229
 20
21.475
 11
13.1458
 21
21.475
  0
LINE
  8
0
 10
13.1458
 20
21.475
 11
7.30316
 21
21.475
  0
LINE
  8
0
 10
7.30316
 20
21.475
 11
1.33128
 21
34.7655
  0
LINE
  8
0
 10
1.33128
 20
34.7655
 11
1.33109
 21
34.766
  0
LINE
  8
0
 10
1.33109
 20
34.766
 11
-1.33265
 21
40.6942
  0
LINE
  8
0
 10
-1.33265
 20
40.6942
 11
-2.18491
 21
41.0143
  0
LINE
  8
0
 10
-2.18491
 20
41.0143
 11
-2.18496
 21
41.0143
  0
LINE
  8
0
 10
-2.18496
 20
41.0143
 11
-3.80069
 21
41.6212
  0
LINE
  8
0
 10
-3.80069
 20
41.6212
 11
-10.7487
 21
41.6212
  0
LINE
  8
0
 10
-10.7487
 20
41.6212
 11
-10.7768
 21
41.6212
  0
LINE
  8
0
 10
-10.7768
 20
41.6212
 11
-13.4109
 21
41.6212
  0
LINE
  8
0
 10
-13.4109
 20
41.6212
 11
-16.5048
 21
43.5141
  0
LINE
  8
0
 10
-16.5048
 20
43.5141
 11
-17.063
 21
43.7153
  0
LINE
  8
0
 10
-17.063
 20
43.7153
 11
-19.0775
 21
44.4412
  0
LINE
  8
0
 10
-19.0775
 20
44.4412
 11
-26.2384
 21
44.4412
  0
LINE
  8
0
 10
-26.2384
 20
44.4412
 11
-28.2224
 21
44.4412
  0
LINE
  8
0
 10
-28.2224
 20
44.4412
 11
-28.7175
 21
42.7514
  0
LINE
  8
0
 10
-28.7175
 20
42.7514
 11
-28.8076
 21
42.444
  0
LINE
  8
0
 10
-28.8076
 20
42.444
 11
-28.8119
 21
42.4293
  0
LINE
  8
0
 10
-28.8119
 20
42.4293
 11
-28.8355
 21
42.3489
  0
LINE
  8
0
 10
-28.8355
 20
42.3489
 11
-27.8339
 21
41.6212
  0
LINE
  8
0
 10
-27.8339
 20
41.6212
 11
-30.7742
 21
41.6212
  0
LINE
  8
0
 10
-30.7742
 20
41.6212
 11
-30.7811
 21
41.6212
  0
LINE
  8
0
 10
-30.7811
 20
41.6212
 11
-31.8997
 21
41.6212
  0
LINE
  8
0
 10
-31.8997
 20
41.6212
 11
-32.1651
 21
41.6212
  0
LINE
  8
0
 10
-32.1651
 20
41.6212
 11
-32.1693
 21
41.6212
  0
LINE
  8
0
 10
-32.1693
 20
41.6212
 11
-32.2005
 21
41.6212
  0
LINE
  8
0
 10
-32.2005
 20
41.6212
 11
-37.5346
 21
41.6212
  0
LINE
  8
0
 10
-37.5346
 20
41.6212
 11
-37.5386
 21
41.6212
  0
LINE
  8
0
 10
-37.5386
 20
41.6212
 11
-38.2237
 21
41.6212
  0
LINE
  8
0
 10
-38.2237
 20
41.6212
 11
-42.5317
 21
40.3492
  0
LINE
  8
0
 10
-42.5317
 20
40.3492
 11
-42.9719
 21
40.2192
  0
LINE
  8
0
 10
-42.9719
 20
40.2192
 11
-51.1464
 21
32.0447
  0
LINE
  8
0
 10
-51.1464
 20
32.0447
 11
-52.0719
 21
31.1192
  0
LINE
  8
0
 10
-52.0719
 20
31.1192
 11
-52.5871
 21
29.4646
  0
LINE
  8
0
 10
-52.5871
 20
29.4646
 11
-57.0615
 21
15.0939
  0
LINE
  8
0
 10
-57.0615
 20
15.0939
 11
-57.1655
 21
14.4084
  0
LINE
  8
0
 10
-57.1655
 20
14.4084
 11
-58.066
 21
8.47499
  0
LINE
  8
0
 10
-58.066
 20
8.47499
 11
-58.066
 21
-8.47499
  0
LINE
  8
0
 10
-58.066
 20
-8.47499
 11
-57.1655
 21
-14.4084
  0
LINE
  8
0
 10
-57.1655
 20
-14.4084
 11
-57.0615
 21
-15.0939
  0
LINE
  8
0
 10
-57.0615
 20
-15.0939
 11
-52.5871
 21
-29.4646
  0
LINE
  8
0
 10
-52.5871
 20
-29.4646
 11
-52.4946
 21
-29.7618
  0
LINE
  8
0
 10
-52.4946
 20
-29.7618
 11
-59.8023
 21
-26.2581
  0
LINE
  8
0
 10
-59.8023
 20
-26.2581
 11
-60.8899
 21
-25.7367
  0
LINE
  8
0
 10
-60.8899
 20
-25.7367
 11
-60.9043
 21
-25.7403
  0
LINE
  8
0
 10
-60.9043
 20
-25.7403
 11
-63.3686
 21
-26.3547
  0
LINE
  8
0
 10
-63.3686
 20
-26.3547
 11
-72.0641
 21
-28.5227
  0
LINE
  8
0
 10
-72.0641
 20
-28.5227
 11
-72.4154
 21
-28.6784
  0
LINE
  8
0
 10
-72.4154
 20
-28.6784
 11
-72.4154
 21
-28.6785
  0
LINE
  8
0
 10
-72.4154
 20
-28.6785
 11
-73.7305
 21
-29.2614
  0
LINE
  8
0
 10
-73.7305
 20
-29.2614
 11
-77.1294
 21
-37.4698
  0
LINE
  8
0
 10
-77.1294
 20
-37.4698
 11
-78.0373
 21
-39.6624
  0
LINE
  8
0
 10
-75.0613
 20
-38.3562
 11
-75.0241
 21
-38.0028
  0
LINE
  8
0
 10
-75.0241
 20
-38.0028
 11
-74.9143
 21
-37.6648
  0
LINE
  8
0
 10
-74.9143
 20
-37.6648
 11
-74.7366
 21
-37.357
  0
LINE
  8
0
 10
-74.7366
 20
-37.357
 11
-74.4988
 21
-37.0929
  0
LINE
  8
0
 10
-74.4988
 20
-37.0929
 11
-74.2113
 21
-36.884
  0
LINE
  8
0
 10
-74.2113
 20
-36.884
 11
-73.8866
 21
-36.7394
  0
LINE
  8
0
 10
-73.8866
 20
-36.7394
 11
-73.539
 21
-36.6655
  0
LINE
  8
0
 10
-73.539
 20
-36.6655
 11
-73.1836
 21
-36.6655
  0
LINE
  8
0
 10
-73.1836
 20
-36.6655
 11
-72.8359
 21
-36.7394
  0
LINE
  8
0
 10
-72.8359
 20
-36.7394
 11
-72.5113
 21
-36.884
  0
LINE
  8
0
 10
-72.5113
 20
-36.884
 11
-72.2238
 21
-37.0929
  0
LINE
  8
0
 10
-72.2238
 20
-37.0929
 11
-71.9859
 21
-37.357
  0
LINE
  8
0
 10
-71.9859
 20
-37.357
 11
-71.8082
 21
-37.6648
  0
LINE
  8
0
 10
-71.8082
 20
-37.6648
 11
-71.6984
 21
-38.0028
  0
LINE
  8
0
 10
-71.6984
 20
-38.0028
 11
-71.6613
 21
-38.3562
  0
LINE
  8
0
 10
-71.6613
 20
-38.3562
 11
-71.6984
 21
-38.7097
  0
LINE
  8
0
 10
-71.6984
 20
-38.7097
 11
-71.8082
 21
-39.0477
  0
LINE
  8
0
 10
-71.8082
 20
-39.0477
 11
-71.9859
 21
-39.3554
  0
LINE
  8
0
 10
-71.9859
 20
-39.3554
 11
-72.2238
 21
-39.6196
  0
LINE
  8
0
 10
-72.2238
 20
-39.6196
 11
-72.5113
 21
-39.8285
  0
LINE
  8
0
 10
-72.5113
 20
-39.8285
 11
-72.8359
 21
-39.973
  0
LINE
  8
0
 10
-72.8359
 20
-39.973
 11
-73.1836
 21
-40.0469
  0
LINE
  8
0
 10
-73.1836
 20
-40.0469
 11
-73.539
 21
-40.0469
  0
LINE
  8
0
 10
-73.539
 20
-40.0469
 11
-73.8866
 21
-39.973
  0
LINE
  8
0
 10
-73.8866
 20
-39.973
 11
-74.2113
 21
-39.8285
  0
LINE
  8
0
 10
-74.2113
 20
-39.8285
 11
-74.4988
 21
-39.6196
  0
LINE
  8
0
 10
-74.4988
 20
-39.6196
 11
-74.7366
 21
-39.3554
  0
LINE
  8
0
 10
-74.7366
 20
-39.3554
 11
-74.9143
 21
-39.0477
  0
LINE
  8
0
 10
-74.9143
 20
-39.0477
 11
-75.0241
 21
-38.7097
  0
LINE
  8
0
 10
-75.0241
 20
-38.7097
 11
-75.0613
 21
-38.3562
  0
LINE
  8
0
 10
-73.5588
 20
-41.9853
 11
-72.9798
 21
-41.9853
  0
LINE
  8
0
 10
-72.9798
 20
-41.9853
 11
-72.9665
 21
-41.9825
  0
LINE
  8
0
 10
-72.9665
 20
-41.9825
 11
-72.2336
 21
-41.8267
  0
LINE
  8
0
 10
-72.2336
 20
-41.8267
 11
-71.5492
 21
-41.522
  0
LINE
  8
0
 10
-71.5492
 20
-41.522
 11
-71.5367
 21
-41.5164
  0
LINE
  8
0
 10
-71.5367
 20
-41.5164
 11
-71.5257
 21
-41.5084
  0
LINE
  8
0
 10
-71.5257
 20
-41.5084
 11
-70.9196
 21
-41.068
  0
LINE
  8
0
 10
-70.9196
 20
-41.068
 11
-70.9104
 21
-41.0578
  0
LINE
  8
0
 10
-70.9104
 20
-41.0578
 11
-70.4091
 21
-40.5011
  0
LINE
  8
0
 10
-70.4091
 20
-40.5011
 11
-70.0345
 21
-39.8523
  0
LINE
  8
0
 10
-70.0345
 20
-39.8523
 11
-70.0277
 21
-39.8404
  0
LINE
  8
0
 10
-70.0277
 20
-39.8404
 11
-70.0234
 21
-39.8274
  0
LINE
  8
0
 10
-70.0234
 20
-39.8274
 11
-69.7919
 21
-39.1149
  0
LINE
  8
0
 10
-69.7919
 20
-39.1149
 11
-69.7136
 21
-38.3698
  0
LINE
  8
0
 10
-69.7136
 20
-38.3698
 11
-69.7122
 21
-38.3562
  0
LINE
  8
0
 10
-69.7122
 20
-38.3562
 11
-69.7136
 21
-38.3426
  0
LINE
  8
0
 10
-69.7136
 20
-38.3426
 11
-69.7919
 21
-37.5975
  0
LINE
  8
0
 10
-69.7919
 20
-37.5975
 11
-70.0234
 21
-36.885
  0
LINE
  8
0
 10
-70.0234
 20
-36.885
 11
-70.0277
 21
-36.872
  0
LINE
  8
0
 10
-70.0277
 20
-36.872
 11
-70.0345
 21
-36.8601
  0
LINE
  8
0
 10
-70.0345
 20
-36.8601
 11
-70.4091
 21
-36.2113
  0
LINE
  8
0
 10
-70.4091
 20
-36.2113
 11
-70.9104
 21
-35.6546
  0
LINE
  8
0
 10
-70.9104
 20
-35.6546
 11
-70.9196
 21
-35.6444
  0
LINE
  8
0
 10
-70.9196
 20
-35.6444
 11
-71.5257
 21
-35.2041
  0
LINE
  8
0
 10
-71.5257
 20
-35.2041
 11
-71.5367
 21
-35.196
  0
LINE
  8
0
 10
-71.5367
 20
-35.196
 11
-71.5492
 21
-35.1904
  0
LINE
  8
0
 10
-71.5492
 20
-35.1904
 11
-72.2336
 21
-34.8857
  0
LINE
  8
0
 10
-72.2336
 20
-34.8857
 11
-72.9665
 21
-34.73
  0
LINE
  8
0
 10
-72.9665
 20
-34.73
 11
-72.9798
 21
-34.7271
  0
LINE
  8
0
 10
-72.9798
 20
-34.7271
 11
-73.0349
 21
-34.7271
  0
LINE
  8
0
 10
-73.0349
 20
-34.7271
 11
-71.4723
 21
-30.9533
  0
LINE
  8
0
 10
-71.4723
 20
-30.9533
 11
-63.8529
 21
-29.0536
  0
LINE
  8
0
 10
-63.8529
 20
-29.0536
 11
-61.4819
 21
-28.4624
  0
LINE
  8
0
 10
-61.4819
 20
-28.4624
 11
-53.7474
 21
-30.6462
  0
LINE
  8
0
 10
-53.7474
 20
-30.6462
 11
-52.0719
 21
-31.1192
  0
LINE
  8
0
 10
-52.0719
 20
-31.1192
 11
-49.8719
 21
-31.1192
  0
LINE
  8
0
 10
-49.8719
 20
-31.1192
 11
-49.8719
 21
-31.0192
  0
LINE
  8
0
 10
-49.8719
 20
-31.0192
 11
-54.3689
 21
-16.5758
  0
LINE
  8
0
 10
-54.3689
 20
-16.5758
 11
-54.8615
 21
-14.9939
  0
LINE
  8
0
 10
-54.8615
 20
-14.9939
 11
-54.9624
 21
-14.3289
  0
LINE
  8
0
 10
-54.9624
 20
-14.3289
 11
-55.866
 21
-8.375
  0
LINE
  8
0
 10
-55.866
 20
-8.375
 11
-55.866
 21
8.375
  0
LINE
  8
0
 10
-55.866
 20
8.375
 11
-54.9624
 21
14.3289
  0
LINE
  8
0
 10
-54.9624
 20
14.3289
 11
-54.8615
 21
14.9939
  0
LINE
  8
0
 10
-54.8615
 20
14.9939
 11
-54.3689
 21
16.5758
  0
LINE
  8
0
 10
-54.3689
 20
16.5758
 11
-51.541
 21
25.6586
  0
LINE
  8
0
 10
-51.541
 20
25.6586
 11
-51.2676
 21
25.3549
  0
LINE
  8
0
 10
-51.2676
 20
25.3549
 11
-51.2584
 21
25.3448
  0
LINE
  8
0
 10
-51.2584
 20
25.3448
 11
-50.6523
 21
24.9044
  0
LINE
  8
0
 10
-50.6523
 20
24.9044
 11
-50.6413
 21
24.8964
  0
LINE
  8
0
 10
-50.6413
 20
24.8964
 11
-50.6288
 21
24.8908
  0
LINE
  8
0
 10
-50.6288
 20
24.8908
 11
-49.9443
 21
24.5861
  0
LINE
  8
0
 10
-49.9443
 20
24.5861
 11
-49.2115
 21
24.4303
  0
LINE
  8
0
 10
-49.2115
 20
24.4303
 11
-49.1981
 21
24.4275
  0
LINE
  8
0
 10
-49.1981
 20
24.4275
 11
-48.4353
 21
24.4275
  0
LINE
  8
0
 10
-48.4353
 20
24.4275
 11
-48.4219
 21
24.4303
  0
LINE
  8
0
 10
-48.4219
 20
24.4303
 11
-47.6891
 21
24.5861
  0
LINE
  8
0
 10
-47.6891
 20
24.5861
 11
-47.0047
 21
24.8908
  0
LINE
  8
0
 10
-47.0047
 20
24.8908
 11
-46.9922
 21
24.8964
  0
LINE
  8
0
 10
-46.9922
 20
24.8964
 11
-46.9811
 21
24.9044
  0
LINE
  8
0
 10
-46.9811
 20
24.9044
 11
-46.375
 21
25.3448
  0
LINE
  8
0
 10
-46.375
 20
25.3448
 11
-46.3658
 21
25.3549
  0
LINE
  8
0
 10
-46.3658
 20
25.3549
 11
-45.8645
 21
25.9117
  0
LINE
  8
0
 10
-45.8645
 20
25.9117
 11
-45.4899
 21
26.5605
  0
LINE
  8
0
 10
-45.4899
 20
26.5605
 11
-45.4831
 21
26.5724
  0
LINE
  8
0
 10
-45.4831
 20
26.5724
 11
-45.4789
 21
26.5854
  0
LINE
  8
0
 10
-45.4789
 20
26.5854
 11
-45.2474
 21
27.2979
  0
LINE
  8
0
 10
-45.2474
 20
27.2979
 11
-45.1691
 21
28.043
  0
LINE
  8
0
 10
-45.1691
 20
28.043
 11
-45.1676
 21
28.0566
  0
LINE
  8
0
 10
-45.1676
 20
28.0566
 11
-45.1691
 21
28.0702
  0
LINE
  8
0
 10
-45.1691
 20
28.0702
 11
-45.2474
 21
28.8153
  0
LINE
  8
0
 10
-45.2474
 20
28.8153
 11
-45.4789
 21
29.5278
  0
LINE
  8
0
 10
-45.4789
 20
29.5278
 11
-45.4831
 21
29.5408
  0
LINE
  8
0
 10
-45.4831
 20
29.5408
 11
-45.4899
 21
29.5526
  0
LINE
  8
0
 10
-45.4899
 20
29.5526
 11
-45.8645
 21
30.2015
  0
LINE
  8
0
 10
-45.8645
 20
30.2015
 11
-46.3658
 21
30.7582
  0
LINE
  8
0
 10
-46.3658
 20
30.7582
 11
-46.375
 21
30.7684
  0
LINE
  8
0
 10
-46.375
 20
30.7684
 11
-46.9811
 21
31.2087
  0
LINE
  8
0
 10
-46.9811
 20
31.2087
 11
-46.9922
 21
31.2168
  0
LINE
  8
0
 10
-46.9922
 20
31.2168
 11
-47.0047
 21
31.2223
  0
LINE
  8
0
 10
-47.0047
 20
31.2223
 11
-47.6891
 21
31.5271
  0
LINE
  8
0
 10
-47.6891
 20
31.5271
 11
-48.4219
 21
31.6828
  0
LINE
  8
0
 10
-48.4219
 20
31.6828
 11
-48.4353
 21
31.6857
  0
LINE
  8
0
 10
-48.4353
 20
31.6857
 11
-49.1981
 21
31.6857
  0
LINE
  8
0
 10
-49.1981
 20
31.6857
 11
-49.2075
 21
31.6837
  0
LINE
  8
0
 10
-49.2075
 20
31.6837
 11
-42.8719
 21
38.0192
  0
LINE
  8
0
 10
-42.8719
 20
38.0192
 11
-36.7797
 21
38.5443
  0
LINE
  8
0
 10
-36.7797
 20
38.5443
 11
-36.1125
 21
38.6018
  0
LINE
  8
0
 10
-36.1125
 20
38.6018
 11
-30.6502
 21
38.6018
  0
LINE
  8
0
 10
-30.6502
 20
38.6018
 11
-30.0958
 21
38.6018
  0
LINE
  8
0
 10
-30.0958
 20
38.6018
 11
-29.8722
 21
38.6018
  0
LINE
  8
0
 10
-29.8722
 20
38.6018
 11
-29.8441
 21
38.6018
  0
LINE
  8
0
 10
-29.8441
 20
38.6018
 11
-23.1244
 21
38.6018
  0
LINE
  8
0
 10
-23.1244
 20
38.6018
 11
-22.2615
 21
38.6018
  0
LINE
  8
0
 10
-22.2615
 20
38.6018
 11
-22.2563
 21
38.6018
  0
LINE
  8
0
 10
-22.2563
 20
38.6018
 11
-22.1636
 21
38.9074
  0
LINE
  8
0
 10
-22.1636
 20
38.9074
 11
-21.6467
 21
40.6129
  0
LINE
  8
0
 10
-21.6467
 20
40.6129
 11
-21.6221
 21
40.6942
  0
LINE
  8
0
 10
-21.6221
 20
40.6942
 11
-22.2247
 21
41.1207
  0
LINE
  8
0
 10
-22.2247
 20
41.1207
 11
-22.2248
 21
41.1207
  0
LINE
  8
0
 10
-22.2248
 20
41.1207
 11
-22.6502
 21
41.4218
  0
LINE
  8
0
 10
-22.6502
 20
41.4218
 11
-18.1783
 21
41.4218
  0
LINE
  8
0
 10
-18.1783
 20
41.4218
 11
-16.0331
 21
40.1434
  0
LINE
  8
0
 10
-16.0331
 20
40.1434
 11
-16.033
 21
40.1433
  0
LINE
  8
0
 10
-16.033
 20
40.1433
 11
-15.002
 21
39.5289
  0
LINE
  8
0
 10
-15.002
 20
39.5289
 11
-14.4895
 21
39.3364
  0
LINE
  8
0
 10
-14.4895
 20
39.3364
 11
-12.534
 21
38.6018
  0
LINE
  8
0
 10
-12.534
 20
38.6018
 11
-4.12462
 21
38.6018
  0
LINE
  8
0
 10
-4.12462
 20
38.6018
 11
-4.11811
 21
38.6018
  0
LINE
  8
0
 10
-4.11811
 20
38.6018
 11
-4.01048
 21
38.6018
  0
LINE
  8
0
 10
-4.01048
 20
38.6018
 11
1.59542
 21
26.4724
  0
LINE
  8
0
 10
1.59542
 20
26.4724
 11
4.82121
 21
19.4928
  0
LINE
  8
0
 10
4.82121
 20
19.4928
 11
6.36414
 21
18.59
  0
LINE
  8
0
 10
6.36414
 20
18.59
 11
7.04566
 21
18.1912
  0
LINE
  8
0
 10
7.04566
 20
18.1912
 11
13.7626
 21
18.1912
  0
LINE
  8
0
 10
13.7626
 20
18.1912
 11
13.7142
 21
18.1374
  0
LINE
  8
0
 10
13.7142
 20
18.1374
 11
13.3396
 21
17.4886
  0
LINE
  8
0
 10
13.3396
 20
17.4886
 11
13.3327
 21
17.4768
  0
LINE
  8
0
 10
13.3327
 20
17.4768
 11
13.3285
 21
17.4637
  0
LINE
  8
0
 10
13.3285
 20
17.4637
 11
13.097
 21
16.7512
  0
LINE
  8
0
 10
13.097
 20
16.7512
 11
13.0187
 21
16.0061
  0
LINE
  8
0
 10
13.0187
 20
16.0061
 11
13.0172
 21
15.9925
  0
LINE
  8
0
 10
13.0172
 20
15.9925
 11
13.0187
 21
15.9789
  0
LINE
  8
0
 10
13.0187
 20
15.9789
 11
13.097
 21
15.2338
  0
LINE
  8
0
 10
13.097
 20
15.2338
 11
13.3285
 21
14.5213
  0
LINE
  8
0
 10
13.3285
 20
14.5213
 11
13.3327
 21
14.5083
  0
LINE
  8
0
 10
13.3327
 20
14.5083
 11
13.3396
 21
14.4965
  0
LINE
  8
0
 10
13.3396
 20
14.4965
 11
13.7142
 21
13.8477
  0
LINE
  8
0
 10
13.7142
 20
13.8477
 11
14.2155
 21
13.2909
  0
LINE
  8
0
 10
14.2155
 20
13.2909
 11
14.2246
 21
13.2807
  0
LINE
  8
0
 10
14.2246
 20
13.2807
 11
14.8307
 21
12.8404
  0
LINE
  8
0
 10
14.8307
 20
12.8404
 11
14.8418
 21
12.8323
  0
LINE
  8
0
 10
14.8418
 20
12.8323
 11
14.8543
 21
12.8268
  0
LINE
  8
0
 10
14.8543
 20
12.8268
 11
15.5387
 21
12.522
  0
LINE
  8
0
 10
15.5387
 20
12.522
 11
16.2715
 21
12.3663
  0
LINE
  8
0
 10
16.2715
 20
12.3663
 11
16.2849
 21
12.3634
  0
LINE
  8
0
 10
16.2849
 20
12.3634
 11
17.0478
 21
12.3634
  0
LINE
  8
0
 10
17.0478
 20
12.3634
 11
17.0611
 21
12.3663
  0
LINE
  8
0
 10
17.0611
 20
12.3663
 11
17.794
 21
12.522
  0
LINE
  8
0
 10
17.794
 20
12.522
 11
18.4784
 21
12.8268
  0
LINE
  8
0
 10
18.4784
 20
12.8268
 11
18.4909
 21
12.8323
  0
LINE
  8
0
 10
18.4909
 20
12.8323
 11
18.5019
 21
12.8404
  0
LINE
  8
0
 10
18.5019
 20
12.8404
 11
18.5255
 21
12.8575
  0
LINE
  8
0
 10
18.5255
 20
12.8575
 11
18.644
 21
12.4999
  0
LINE
  8
0
 10
18.644
 20
12.4999
 11
15.7252
 21
3.14443
  0
LINE
  8
0
 10
15.7252
 20
3.14443
 11
13.501
 21
-3.98463
  0
LINE
  8
0
 10
13.501
 20
-3.98463
 11
13.482
 21
-4.04538
  0
LINE
  8
0
 10
13.482
 20
-4.04538
 11
12.5634
 21
-9.97062
  0
LINE
  8
0
 10
12.5634
 20
-9.97062
 11
12.0046
 21
-13.575
  0
LINE
  8
0
 10
12.0046
 20
-13.575
 11
12.0046
 21
-30.425
  0
LINE
  8
0
 10
12.0046
 20
-30.425
 11
12.5634
 21
-34.0294
  0
LINE
  8
0
 10
12.5634
 20
-34.0294
 11
13.482
 21
-39.9546
  0
LINE
  8
0
 10
13.482
 20
-39.9546
 11
13.501
 21
-40.0154
  0
LINE
  8
0
 10
13.501
 20
-40.0154
 11
15.7252
 21
-47.1444
  0
LINE
  8
0
 10
15.7252
 20
-47.1444
 11
18.4733
 21
-55.9529
  0
LINE
  8
0
 10
18.4733
 20
-55.9529
 11
18.2901
 21
-55.8713
  0
LINE
  8
0
 10
18.2901
 20
-55.8713
 11
17.5573
 21
-55.7155
  0
LINE
  8
0
 10
17.5573
 20
-55.7155
 11
17.5439
 21
-55.7127
  0
LINE
  8
0
 10
17.5439
 20
-55.7127
 11
16.781
 21
-55.7127
  0
LINE
  8
0
 10
16.781
 20
-55.7127
 11
16.7676
 21
-55.7155
  0
LINE
  8
0
 10
16.7676
 20
-55.7155
 11
16.0348
 21
-55.8713
  0
LINE
  8
0
 10
16.0348
 20
-55.8713
 11
15.3504
 21
-56.176
  0
LINE
  8
0
 10
15.3504
 20
-56.176
 11
15.3379
 21
-56.1816
  0
LINE
  8
0
 10
15.3379
 20
-56.1816
 11
15.3268
 21
-56.1896
  0
LINE
  8
0
 10
15.3268
 20
-56.1896
 11
14.7207
 21
-56.63
  0
LINE
  8
0
 10
14.7207
 20
-56.63
 11
14.7116
 21
-56.6401
  0
LINE
  8
0
 10
14.7116
 20
-56.6401
 11
14.2103
 21
-57.1969
  0
LINE
  8
0
 10
14.2103
 20
-57.1969
 11
13.8357
 21
-57.8457
  0
LINE
  8
0
 10
13.8357
 20
-57.8457
 11
13.8288
 21
-57.8575
  0
LINE
  8
0
 10
13.8288
 20
-57.8575
 11
13.8246
 21
-57.8706
  0
LINE
  8
0
 10
13.8246
 20
-57.8706
 11
13.5931
 21
-58.5831
  0
LINE
  8
0
 10
13.5931
 20
-58.5831
 11
13.5148
 21
-59.3282
  0
LINE
  8
0
 10
13.5148
 20
-59.3282
 11
13.5134
 21
-59.3418
  0
LINE
  8
0
 10
13.5134
 20
-59.3418
 11
13.5148
 21
-59.3554
  0
LINE
  8
0
 10
13.5148
 20
-59.3554
 11
13.5931
 21
-60.1005
  0
LINE
  8
0
 10
13.5931
 20
-60.1005
 11
13.8246
 21
-60.813
  0
LINE
  8
0
 10
13.8246
 20
-60.813
 11
13.8288
 21
-60.826
  0
LINE
  8
0
 10
13.8288
 20
-60.826
 11
13.8357
 21
-60.8378
  0
LINE
  8
0
 10
13.8357
 20
-60.8378
 11
14.2103
 21
-61.4866
  0
LINE
  8
0
 10
14.2103
 20
-61.4866
 11
14.7116
 21
-62.0434
  0
LINE
  8
0
 10
14.7116
 20
-62.0434
 11
14.7207
 21
-62.0536
  0
LINE
  8
0
 10
14.7207
 20
-62.0536
 11
14.9102
 21
-62.1912
  0
LINE
  8
0
 10
14.9102
 20
-62.1912
 11
9.99251
 21
-62.1912
  0
LINE
  8
0
 10
9.99251
 20
-62.1912
 11
11.1295
 21
-61.1203
  0
LINE
  8
0
 10
11.1295
 20
-61.1203
 11
12.4465
 21
-59.8799
  0
LINE
  8
0
 10
12.4465
 20
-59.8799
 11
12.4465
 21
-59.8799
  0
LINE
  8
0
 10
12.4465
 20
-59.8799
 11
12.4089
 21
-59.8201
  0
LINE
  8
0
 10
12.4089
 20
-59.8201
 11
12.1121
 21
-59.3477
  0
LINE
  8
0
 10
12.1121
 20
-59.3477
 11
12.112
 21
-59.3477
  0
LINE
  8
0
 10
12.112
 20
-59.3477
 11
11.3279
 21
-58.1
  0
LINE
  8
0
 10
11.3279
 20
-58.1
 11
11.3279
 21
-58.1
  0
LINE
  8
0
 10
11.3279
 20
-58.1
 11
9.42475
 21
-58.1
  0
LINE
  8
0
 10
9.42475
 20
-58.1
 11
0.714692
 21
-58.1
  0
LINE
  8
0
 10
0.714692
 20
-58.1
 11
0.329898
 21
-58.4232
  0
LINE
  8
0
 10
0.329898
 20
-58.4232
 11
-1.38474
 21
-59.8634
  0
LINE
  8
0
 10
-1.38474
 20
-59.8634
 11
-1.38474
 21
-59.8634
  0
LINE
  8
0
 10
-1.38474
 20
-59.8634
 11
-2.66174
 21
-62.1002
  0
LINE
  8
0
 10
-2.66174
 20
-62.1002
 11
-9.74989
 21
-74.516
  0
LINE
  8
0
 10
-9.74989
 20
-74.516
 11
-18.0298
 21
-76.9568
  0
LINE
  8
0
 10
-18.0298
 20
-76.9568
 11
-17.9867
 21
-76.5459
  0
LINE
  8
0
 10
-17.9867
 20
-76.5459
 11
-17.9852
 21
-76.5323
  0
LINE
  8
0
 10
-17.9852
 20
-76.5323
 11
-17.9867
 21
-76.5187
  0
LINE
  8
0
 10
-17.9867
 20
-76.5187
 11
-18.065
 21
-75.7736
  0
LINE
  8
0
 10
-18.065
 20
-75.7736
 11
-18.2965
 21
-75.0611
  0
LINE
  8
0
 10
-18.2965
 20
-75.0611
 11
-18.3007
 21
-75.048
  0
LINE
  8
0
 10
-18.3007
 20
-75.048
 11
-18.3075
 21
-75.0362
  0
LINE
  8
0
 10
-18.3075
 20
-75.0362
 11
-18.6821
 21
-74.3874
  0
LINE
  8
0
 10
-18.6821
 20
-74.3874
 11
-19.1834
 21
-73.8306
  0
LINE
  8
0
 10
-19.1834
 20
-73.8306
 11
-19.1926
 21
-73.8205
  0
LINE
  8
0
 10
-19.1926
 20
-73.8205
 11
-19.7987
 21
-73.3801
  0
LINE
  8
0
 10
-19.7987
 20
-73.3801
 11
-19.8098
 21
-73.3721
  0
LINE
  8
0
 10
-19.8098
 20
-73.3721
 11
-19.8223
 21
-73.3665
  0
LINE
  8
0
 10
-19.8223
 20
-73.3665
 11
-20.5067
 21
-73.0618
  0
LINE
  8
0
 10
-20.5067
 20
-73.0618
 11
-21.2395
 21
-72.906
  0
LINE
  8
0
 10
-21.2395
 20
-72.906
 11
-21.2529
 21
-72.9032
  0
LINE
  8
0
 10
-21.2529
 20
-72.9032
 11
-22.0157
 21
-72.9032
  0
LINE
  8
0
 10
-22.0157
 20
-72.9032
 11
-22.0291
 21
-72.906
  0
LINE
  8
0
 10
-22.0291
 20
-72.906
 11
-22.7619
 21
-73.0618
  0
LINE
  8
0
 10
-22.7619
 20
-73.0618
 11
-23.4464
 21
-73.3665
  0
LINE
  8
0
 10
-23.4464
 20
-73.3665
 11
-23.4589
 21
-73.3721
  0
LINE
  8
0
 10
-23.4589
 20
-73.3721
 11
-23.4699
 21
-73.3801
  0
LINE
  8
0
 10
-23.4699
 20
-73.3801
 11
-24.076
 21
-73.8205
  0
LINE
  8
0
 10
-24.076
 20
-73.8205
 11
-24.0852
 21
-73.8306
  0
LINE
  8
0
 10
-24.0852
 20
-73.8306
 11
-24.5865
 21
-74.3874
  0
LINE
  8
0
 10
-24.5865
 20
-74.3874
 11
-24.9611
 21
-75.0362
  0
LINE
  8
0
 10
-24.9611
 20
-75.0362
 11
-24.9679
 21
-75.048
  0
LINE
  8
0
 10
-24.9679
 20
-75.048
 11
-24.9722
 21
-75.0611
  0
LINE
  8
0
 10
-24.9722
 20
-75.0611
 11
-25.2037
 21
-75.7736
  0
LINE
  8
0
 10
-25.2037
 20
-75.7736
 11
-25.282
 21
-76.5187
  0
LINE
  8
0
 10
-25.282
 20
-76.5187
 11
-25.2834
 21
-76.5323
  0
LINE
  8
0
 10
-25.2834
 20
-76.5323
 11
-25.282
 21
-76.5459
  0
LINE
  8
0
 10
-25.282
 20
-76.5459
 11
-25.2037
 21
-77.2909
  0
LINE
  8
0
 10
-25.2037
 20
-77.2909
 11
-24.9722
 21
-78.0035
  0
LINE
  8
0
 10
-24.9722
 20
-78.0035
 11
-24.9679
 21
-78.0165
  0
LINE
  8
0
 10
-24.9679
 20
-78.0165
 11
-24.9611
 21
-78.0283
  0
LINE
  8
0
 10
-24.9611
 20
-78.0283
 11
-24.5865
 21
-78.6771
  0
LINE
  8
0
 10
-24.5865
 20
-78.6771
 11
-24.4353
 21
-78.845
  0
LINE
  8
0
 10
-24.4353
 20
-78.845
 11
-24.8842
 21
-78.9773
  0
LINE
  8
0
 10
-24.8842
 20
-78.9773
 11
-27.7496
 21
-79.6918
  0
LINE
  8
0
 10
-27.7496
 20
-79.6918
 11
-27.7499
 21
-79.6918
  0
LINE
  8
0
 10
-27.7499
 20
-79.6918
 11
-39.0479
 21
-82.5087
  0
LINE
  8
0
 10
-39.0479
 20
-82.5087
 11
-39.0648
 21
-82.513
  0
LINE
  8
0
 10
-39.0648
 20
-82.513
 11
-40.2157
 21
-82.9717
  0
LINE
  8
0
 10
-40.2157
 20
-82.9717
 11
-40.2158
 21
-82.9717
  0
LINE
  8
0
 10
-40.2158
 20
-82.9717
 11
-40.5098
 21
-83.0889
  0
LINE
  8
0
 10
-40.5098
 20
-83.0889
 11
-40.5098
 21
-83.0889
  0
LINE
  8
0
 10
-40.5098
 20
-83.0889
 11
-40.9327
 21
-83.6593
  0
LINE
  8
0
 10
-40.9327
 20
-83.6593
 11
-40.936
 21
-83.6638
  0
LINE
  8
0
 10
-40.936
 20
-83.6638
 11
-42.817
 21
-84.1328
  0
LINE
  8
0
 10
-42.817
 20
-84.1328
 11
-52.4435
 21
-86.533
  0
LINE
  8
0
 10
-52.4435
 20
-86.533
 11
-57.7785
 21
-82.5646
  0
LINE
  8
0
 10
-57.7785
 20
-82.5646
 11
-59.703
 21
-81.133
  0
LINE
  8
0
 10
-59.703
 20
-81.133
 11
-61.0019
 21
-76.3536
  0
LINE
  8
0
 10
-61.0019
 20
-76.3536
 11
-64.1651
 21
-64.7143
  0
LINE
  8
0
 10
-64.1651
 20
-64.7143
 11
-64.1727
 21
-64.6861
  0
LINE
  8
0
 10
-64.1727
 20
-64.6861
 11
-65.0398
 21
-63.7477
  0
LINE
  8
0
 10
-65.0398
 20
-63.7477
 11
-67.4893
 21
-61.0966
  0
LINE
  8
0
 10
-67.4893
 20
-61.0966
 11
-72.7593
 21
-44.5029
  0
LINE
  8
0
 10
-72.7593
 20
-44.5029
 11
-73.5588
 21
-41.9853
  0
LINE
  8
0
 10
-50.5167
 20
28.0566
 11
-50.4796
 21
28.41
  0
LINE
  8
0
 10
-50.4796
 20
28.41
 11
-50.3697
 21
28.748
  0
LINE
  8
0
 10
-50.3697
 20
28.748
 11
-50.192
 21
29.0558
  0
LINE
  8
0
 10
-50.192
 20
29.0558
 11
-49.9542
 21
29.3199
  0
LINE
  8
0
 10
-49.9542
 20
29.3199
 11
-49.6667
 21
29.5288
  0
LINE
  8
0
 10
-49.6667
 20
29.5288
 11
-49.342
 21
29.6734
  0
LINE
  8
0
 10
-49.342
 20
29.6734
 11
-48.9944
 21
29.7473
  0
LINE
  8
0
 10
-48.9944
 20
29.7473
 11
-48.639
 21
29.7473
  0
LINE
  8
0
 10
-48.639
 20
29.7473
 11
-48.2914
 21
29.6734
  0
LINE
  8
0
 10
-48.2914
 20
29.6734
 11
-47.9667
 21
29.5288
  0
LINE
  8
0
 10
-47.9667
 20
29.5288
 11
-47.6792
 21
29.3199
  0
LINE
  8
0
 10
-47.6792
 20
29.3199
 11
-47.4414
 21
29.0558
  0
LINE
  8
0
 10
-47.4414
 20
29.0558
 11
-47.2637
 21
28.748
  0
LINE
  8
0
 10
-47.2637
 20
28.748
 11
-47.1539
 21
28.41
  0
LINE
  8
0
 10
-47.1539
 20
28.41
 11
-47.1167
 21
28.0566
  0
LINE
  8
0
 10
-47.1167
 20
28.0566
 11
-47.1539
 21
27.7031
  0
LINE
  8
0
 10
-47.1539
 20
27.7031
 11
-47.2637
 21
27.3651
  0
LINE
  8
0
 10
-47.2637
 20
27.3651
 11
-47.4414
 21
27.0573
  0
LINE
  8
0
 10
-47.4414
 20
27.0573
 11
-47.6792
 21
26.7932
  0
LINE
  8
0
 10
-47.6792
 20
26.7932
 11
-47.9667
 21
26.5843
  0
LINE
  8
0
 10
-47.9667
 20
26.5843
 11
-48.2914
 21
26.4398
  0
LINE
  8
0
 10
-48.2914
 20
26.4398
 11
-48.639
 21
26.3659
  0
LINE
  8
0
 10
-48.639
 20
26.3659
 11
-48.9944
 21
26.3659
  0
LINE
  8
0
 10
-48.9944
 20
26.3659
 11
-49.342
 21
26.4398
  0
LINE
  8
0
 10
-49.342
 20
26.4398
 11
-49.6667
 21
26.5843
  0
LINE
  8
0
 10
-49.6667
 20
26.5843
 11
-49.9542
 21
26.7932
  0
LINE
  8
0
 10
-49.9542
 20
26.7932
 11
-50.192
 21
27.0573
  0
LINE
  8
0
 10
-50.192
 20
27.0573
 11
-50.3697
 21
27.3651
  0
LINE
  8
0
 10
-50.3697
 20
27.3651
 11
-50.4796
 21
27.7031
  0
LINE
  8
0
 10
-50.4796
 20
27.7031
 11
-50.5167
 21
28.0566
  0
LINE
  8
0
 10
-23.3343
 20
-76.5323
 11
-23.2972
 21
-76.1788
  0
LINE
  8
0
 10
-23.2972
 20
-76.1788
 11
-23.1873
 21
-75.8408
  0
LINE
  8
0
 10
-23.1873
 20
-75.8408
 11
-23.0096
 21
-75.533
  0
LINE
  8
0
 10
-23.0096
 20
-75.533
 11
-22.7718
 21
-75.2689
  0
LINE
  8
0
 10
-22.7718
 20
-75.2689
 11
-22.4843
 21
-75.06
  0
LINE
  8
0
 10
-22.4843
 20
-75.06
 11
-22.1596
 21
-74.9155
  0
LINE
  8
0
 10
-22.1596
 20
-74.9155
 11
-21.812
 21
-74.8416
  0
LINE
  8
0
 10
-21.812
 20
-74.8416
 11
-21.4566
 21
-74.8416
  0
LINE
  8
0
 10
-21.4566
 20
-74.8416
 11
-21.109
 21
-74.9155
  0
LINE
  8
0
 10
-21.109
 20
-74.9155
 11
-20.7843
 21
-75.06
  0
LINE
  8
0
 10
-20.7843
 20
-75.06
 11
-20.4968
 21
-75.2689
  0
LINE
  8
0
 10
-20.4968
 20
-75.2689
 11
-20.259
 21
-75.533
  0
LINE
  8
0
 10
-20.259
 20
-75.533
 11
-20.0813
 21
-75.8408
  0
LINE
  8
0
 10
-20.0813
 20
-75.8408
 11
-19.9715
 21
-76.1788
  0
LINE
  8
0
 10
-19.9715
 20
-76.1788
 11
-19.9343
 21
-76.5323
  0
LINE
  8
0
 10
-19.9343
 20
-76.5323
 11
-19.9715
 21
-76.8857
  0
LINE
  8
0
 10
-19.9715
 20
-76.8857
 11
-20.0813
 21
-77.2237
  0
LINE
  8
0
 10
-20.0813
 20
-77.2237
 11
-20.259
 21
-77.5315
  0
LINE
  8
0
 10
-20.259
 20
-77.5315
 11
-20.4968
 21
-77.7956
  0
LINE
  8
0
 10
-20.4968
 20
-77.7956
 11
-20.7843
 21
-78.0045
  0
LINE
  8
0
 10
-20.7843
 20
-78.0045
 11
-21.109
 21
-78.1491
  0
LINE
  8
0
 10
-21.109
 20
-78.1491
 11
-21.4566
 21
-78.2229
  0
LINE
  8
0
 10
-21.4566
 20
-78.2229
 11
-21.812
 21
-78.2229
  0
LINE
  8
0
 10
-21.812
 20
-78.2229
 11
-22.1596
 21
-78.1491
  0
LINE
  8
0
 10
-22.1596
 20
-78.1491
 11
-22.4843
 21
-78.0045
  0
LINE
  8
0
 10
-22.4843
 20
-78.0045
 11
-22.7718
 21
-77.7956
  0
LINE
  8
0
 10
-22.7718
 20
-77.7956
 11
-23.0096
 21
-77.5315
  0
LINE
  8
0
 10
-23.0096
 20
-77.5315
 11
-23.1873
 21
-77.2237
  0
LINE
  8
0
 10
-23.1873
 20
-77.2237
 11
-23.2972
 21
-76.8857
  0
LINE
  8
0
 10
-23.2972
 20
-76.8857
 11
-23.3343
 21
-76.5323
  0
LINE
  8
0
 10
14.9663
 20
15.9925
 11
15.0035
 21
16.346
  0
LINE
  8
0
 10
15.0035
 20
16.346
 11
15.1133
 21
16.684
  0
LINE
  8
0
 10
15.1133
 20
16.684
 11
15.291
 21
16.9918
  0
LINE
  8
0
 10
15.291
 20
16.9918
 11
15.5288
 21
17.2559
  0
LINE
  8
0
 10
15.5288
 20
17.2559
 11
15.8163
 21
17.4648
  0
LINE
  8
0
 10
15.8163
 20
17.4648
 11
16.141
 21
17.6093
  0
LINE
  8
0
 10
16.141
 20
17.6093
 11
16.4886
 21
17.6832
  0
LINE
  8
0
 10
16.4886
 20
17.6832
 11
16.844
 21
17.6832
  0
LINE
  8
0
 10
16.844
 20
17.6832
 11
17.1917
 21
17.6093
  0
LINE
  8
0
 10
17.1917
 20
17.6093
 11
17.5163
 21
17.4648
  0
LINE
  8
0
 10
17.5163
 20
17.4648
 11
17.8038
 21
17.2559
  0
LINE
  8
0
 10
17.8038
 20
17.2559
 11
18.0417
 21
16.9918
  0
LINE
  8
0
 10
18.0417
 20
16.9918
 11
18.2194
 21
16.684
  0
LINE
  8
0
 10
18.2194
 20
16.684
 11
18.3292
 21
16.346
  0
LINE
  8
0
 10
18.3292
 20
16.346
 11
18.3663
 21
15.9925
  0
LINE
  8
0
 10
18.3663
 20
15.9925
 11
18.3292
 21
15.6391
  0
LINE
  8
0
 10
18.3292
 20
15.6391
 11
18.2194
 21
15.3011
  0
LINE
  8
0
 10
18.2194
 20
15.3011
 11
18.0417
 21
14.9933
  0
LINE
  8
0
 10
18.0417
 20
14.9933
 11
17.8038
 21
14.7292
  0
LINE
  8
0
 10
17.8038
 20
14.7292
 11
17.5163
 21
14.5203
  0
LINE
  8
0
 10
17.5163
 20
14.5203
 11
17.1917
 21
14.3757
  0
LINE
  8
0
 10
17.1917
 20
14.3757
 11
16.844
 21
14.3018
  0
LINE
  8
0
 10
16.844
 20
14.3018
 11
16.4886
 21
14.3018
  0
LINE
  8
0
 10
16.4886
 20
14.3018
 11
16.141
 21
14.3757
  0
LINE
  8
0
 10
16.141
 20
14.3757
 11
15.8163
 21
14.5203
  0
LINE
  8
0
 10
15.8163
 20
14.5203
 11
15.5288
 21
14.7292
  0
LINE
  8
0
 10
15.5288
 20
14.7292
 11
15.291
 21
14.9933
  0
LINE
  8
0
 10
15.291
 20
14.9933
 11
15.1133
 21
15.3011
  0
LINE
  8
0
 10
15.1133
 20
15.3011
 11
15.0035
 21
15.6391
  0
LINE
  8
0
 10
15.0035
 20
15.6391
 11
14.9663
 21
15.9925
  0
LINE
  8
0
 10
15.4625
 20
-59.3418
 11
15.4996
 21
-58.9883
  0
LINE
  8
0
 10
15.4996
 20
-58.9883
 11
15.6094
 21
-58.6503
  0
LINE
  8
0
 10
15.6094
 20
-58.6503
 11
15.7871
 21
-58.3425
  0
LINE
  8
0
 10
15.7871
 20
-58.3425
 11
16.0249
 21
-58.0784
  0
LINE
  8
0
 10
16.0249
 20
-58.0784
 11
16.3125
 21
-57.8695
  0
LINE
  8
0
 10
16.3125
 20
-57.8695
 11
16.6371
 21
-57.725
  0
LINE
  8
0
 10
16.6371
 20
-57.725
 11
16.9848
 21
-57.6511
  0
LINE
  8
0
 10
16.9848
 20
-57.6511
 11
17.3402
 21
-57.6511
  0
LINE
  8
0
 10
17.3402
 20
-57.6511
 11
17.6878
 21
-57.725
  0
LINE
  8
0
 10
17.6878
 20
-57.725
 11
18.0125
 21
-57.8695
  0
LINE
  8
0
 10
18.0125
 20
-57.8695
 11
18.3
 21
-58.0784
  0
LINE
  8
0
 10
18.3
 20
-58.0784
 11
18.5378
 21
-58.3425
  0
LINE
  8
0
 10
18.5378
 20
-58.3425
 11
18.7155
 21
-58.6503
  0
LINE
  8
0
 10
18.7155
 20
-58.6503
 11
18.8253
 21
-58.9883
  0
LINE
  8
0
 10
18.8253
 20
-58.9883
 11
18.8625
 21
-59.3418
  0
LINE
  8
0
 10
18.8625
 20
-59.3418
 11
18.8253
 21
-59.6952
  0
LINE
  8
0
 10
18.8253
 20
-59.6952
 11
18.7155
 21
-60.0332
  0
LINE
  8
0
 10
18.7155
 20
-60.0332
 11
18.5378
 21
-60.341
  0
LINE
  8
0
 10
18.5378
 20
-60.341
 11
18.3
 21
-60.6051
  0
LINE
  8
0
 10
18.3
 20
-60.6051
 11
18.0125
 21
-60.814
  0
LINE
  8
0
 10
18.0125
 20
-60.814
 11
17.6878
 21
-60.9586
  0
LINE
  8
0
 10
17.6878
 20
-60.9586
 11
17.3402
 21
-61.0325
  0
LINE
  8
0
 10
17.3402
 20
-61.0325
 11
16.9848
 21
-61.0325
  0
LINE
  8
0
 10
16.9848
 20
-61.0325
 11
16.6371
 21
-60.9586
  0
LINE
  8
0
 10
16.6371
 20
-60.9586
 11
16.3125
 21
-60.814
  0
LINE
  8
0
 10
16.3125
 20
-60.814
 11
16.0249
 21
-60.6051
  0
LINE
  8
0
 10
16.0249
 20
-60.6051
 11
15.7871
 21
-60.341
  0
LINE
  8
0
 10
15.7871
 20
-60.341
 11
15.6094
 21
-60.0332
  0
LINE
  8
0
 10
15.6094
 20
-60.0332
 11
15.4996
 21
-59.6952
  0
LINE
  8
0
 10
15.4996
 20
-59.6952
 11
15.4625
 21
-59.3418
  0
ENDSEC
  0
SECTION
  2
OBJECTS
  0
DICTIONARY
  0
ENDSEC
  0
EOF
